<svg width="2334" height="2446" viewBox="0 0 2334 2446" fill="none" xmlns="http://www.w3.org/2000/svg">
<path d="M2333.32 2445.05H-0.000732422V1851.9H2333.32" fill="#193554"/>
<path d="M614.78 2115.13L614.62 2041.08L577.911 2102.37H568.653L531.944 2042.04V2115.13H512.153V2003.41H529.231L573.601 2077.47L617.173 2003.41H634.252L634.412 2115.13" fill="white"/>
<path d="M664.579 2115.13H685.328V2003.41H664.579V2115.13Z" fill="white"/>
<path d="M814.768 2003.41V2115.13H797.689L736.081 2039.48V2115.13H715.492V2003.41H732.571L794.179 2079.07V2003.41" fill="white"/>
<path d="M844.776 2115.13H865.525V2003.41H844.776V2115.13Z" fill="white"/>
<path d="M886.272 2103.33L893.455 2087.21C902.392 2094.39 916.597 2099.49 930.324 2099.49C947.721 2099.49 955.063 2093.27 955.063 2084.97C955.063 2060.87 888.667 2076.68 888.667 2035.17C888.667 2017.13 903.031 2001.81 933.676 2001.81C947.083 2001.81 961.128 2005.33 970.864 2011.71L964.32 2027.84C954.265 2021.93 943.252 2019.05 933.516 2019.05C916.279 2019.05 909.256 2025.76 909.256 2034.21C909.256 2058 975.493 2042.52 975.493 2083.53C975.493 2101.41 960.968 2116.73 930.324 2116.73C912.927 2116.73 895.529 2111.31 886.272 2103.33" fill="white"/>
<path d="M1018.75 2020.97H981.719V2003.41H1076.52V2020.97H1039.5V2115.13H1018.75" fill="white"/>
<path d="M1175.96 2097.75V2115.13H1092.17V2003.41H1173.72V2020.81H1112.91V2049.85H1166.87V2066.93H1112.91V2097.75" fill="white"/>
<path d="M1244.11 2020.97H1219.85V2065.49H1244.11C1262.31 2065.49 1271.72 2057.2 1271.72 2043.16C1271.72 2029.11 1262.31 2020.97 1244.11 2020.97ZM1272.2 2115.13L1249.37 2082.41C1247.95 2082.57 1246.51 2082.57 1245.07 2082.57H1219.85V2115.13H1199.11V2003.41H1245.07C1274.44 2003.41 1292.64 2018.41 1292.64 2043.16C1292.64 2060.08 1284.01 2072.52 1268.85 2078.43L1294.55 2115.13" fill="white"/>
<path d="M1315.77 2115.13H1336.53V2003.41H1315.77V2115.13Z" fill="white"/>
<path d="M1458.15 2059.28C1458.15 2036.45 1441.39 2020.01 1418.88 2020.01C1396.37 2020.01 1379.61 2036.45 1379.61 2059.28C1379.61 2082.09 1396.37 2098.53 1418.88 2098.53C1441.39 2098.53 1458.15 2082.09 1458.15 2059.28V2059.28ZM1358.71 2059.28C1358.71 2026.24 1384.25 2001.81 1418.88 2001.81C1453.52 2001.81 1479.05 2026.08 1479.05 2059.28C1479.05 2092.47 1453.52 2116.73 1418.88 2116.73C1384.25 2116.73 1358.71 2092.31 1358.71 2059.28Z" fill="white"/>
<path d="M1593.01 2097.59C1617.91 2097.59 1634.03 2082.41 1634.03 2059.28C1634.03 2036.13 1617.91 2020.97 1593.01 2020.97H1565.88V2097.59H1593.01ZM1545.13 2003.41H1593.97C1630.2 2003.41 1654.93 2025.76 1654.93 2059.28C1654.93 2092.79 1630.2 2115.13 1593.97 2115.13H1545.13" fill="white"/>
<path d="M1760.76 2097.75V2115.13H1676.96V2003.41H1758.52V2020.81H1697.72V2049.85H1751.67V2066.93H1697.72V2097.75" fill="white"/>
<path d="M714.697 2280.17V2297.57H630.904V2185.84H712.463V2203.24H651.652V2232.29H705.6V2249.37H651.652V2280.17" fill="white"/>
<path d="M786.681 2280.01C811.58 2280.01 827.7 2264.85 827.7 2241.71C827.7 2218.56 811.58 2203.4 786.681 2203.4H759.548V2280.01H786.681ZM738.799 2185.84H787.639C823.869 2185.84 848.608 2208.19 848.608 2241.71C848.608 2275.23 823.869 2297.57 787.639 2297.57H738.799" fill="white"/>
<path d="M870.636 2248.89V2185.84H891.385V2248.09C891.385 2271.08 901.759 2280.97 919.795 2280.97C937.831 2280.97 948.045 2271.08 948.045 2248.09V2185.84H968.475V2248.89C968.475 2281.45 950.12 2299.17 919.636 2299.17C888.991 2299.17 870.636 2281.45 870.636 2248.89" fill="white"/>
<path d="M990.5 2241.71C990.5 2208.35 1016.04 2184.25 1050.35 2184.25C1068.55 2184.25 1084.19 2190.8 1094.56 2202.92L1081.16 2215.53C1073.02 2206.76 1062.96 2202.44 1051.31 2202.44C1028.17 2202.44 1011.41 2218.72 1011.41 2241.71C1011.41 2264.69 1028.17 2280.97 1051.31 2280.97C1062.96 2280.97 1073.02 2276.67 1081.16 2267.72L1094.56 2280.49C1084.19 2292.63 1068.55 2299.17 1050.19 2299.17C1016.04 2299.17 990.5 2275.07 990.5 2241.71Z" fill="white"/>
<path d="M1181.07 2255.44L1160 2206.6L1139.09 2255.44H1181.07ZM1187.93 2271.72H1132.07L1121.06 2297.57H1099.67L1149.95 2185.85H1170.37L1220.81 2297.57H1199.11" fill="white"/>
<path d="M1228 2241.71C1228 2208.35 1253.53 2184.25 1287.85 2184.25C1306.04 2184.25 1321.69 2190.8 1332.07 2202.92L1318.65 2215.53C1310.52 2206.76 1300.45 2202.44 1288.81 2202.44C1265.67 2202.44 1248.91 2218.72 1248.91 2241.71C1248.91 2264.69 1265.67 2280.97 1288.81 2280.97C1300.45 2280.97 1310.52 2276.67 1318.65 2267.72L1332.07 2280.49C1321.69 2292.63 1306.04 2299.17 1287.69 2299.17C1253.53 2299.17 1228 2275.07 1228 2241.71Z" fill="white"/>
<path d="M1352.97 2297.57H1373.72V2185.85H1352.97V2297.57Z" fill="white"/>
<path d="M1465.17 2154.88H1488.64L1460.87 2176.75H1443.63L1465.17 2154.88ZM1496.29 2241.71C1496.29 2218.88 1479.53 2202.44 1457.03 2202.44C1434.53 2202.44 1417.77 2218.88 1417.77 2241.71C1417.77 2264.53 1434.53 2280.97 1457.03 2280.97C1479.53 2280.97 1496.29 2264.53 1496.29 2241.71ZM1396.85 2241.71C1396.85 2208.67 1422.4 2184.25 1457.03 2184.25C1491.67 2184.25 1517.2 2208.51 1517.2 2241.71C1517.2 2274.91 1491.67 2299.17 1457.03 2299.17C1422.4 2299.17 1396.85 2274.75 1396.85 2241.71Z" fill="white"/>
<path d="M1639.47 2185.84V2297.57H1622.39L1560.77 2221.92V2297.57H1540.19V2185.84H1557.27L1618.88 2261.49V2185.84" fill="white"/>
<path d="M837.529 1159.04L837.243 355.215L1043.61 222.5V1026.23" fill="#768CB1"/>
<path d="M1043.61 1021.66V220.218L837.241 357.506L837.526 1159.04" fill="#768CB1"/>
<path d="M1215.53 171.994L1215.35 1159.04L1467.23 987.298V0.385504" fill="#768CB1"/>
<path d="M637.637 1322.27H659.519V1372.19C646.053 1382.43 625.855 1389.45 607.712 1389.45C568.623 1389.45 538.511 1360.04 538.511 1321.89C538.511 1283.75 569.184 1254.71 609.208 1254.71C628.099 1254.71 647.364 1262.11 660.455 1273.68L646.241 1292.28C636.329 1282.99 622.488 1277.29 609.208 1277.29C583.96 1277.29 564.133 1296.84 564.133 1321.89C564.133 1347.13 584.147 1366.68 609.395 1366.68C618.373 1366.68 628.661 1363.45 637.637 1358.33" fill="#193554"/>
<path d="M701.972 1321.89C701.972 1346.95 722.359 1366.68 746.487 1366.68C770.427 1366.68 790.252 1346.95 790.252 1321.89C790.252 1296.84 770.427 1277.48 746.487 1277.48C722.171 1277.48 701.972 1296.84 701.972 1321.89ZM815.876 1321.89C815.876 1360.04 785.576 1389.45 746.111 1389.45C706.649 1389.45 676.349 1360.04 676.349 1321.89C676.349 1283.56 706.649 1254.71 746.111 1254.71C785.576 1254.71 815.876 1283.75 815.876 1321.89Z" fill="#193554"/>
<path d="M918.364 1348.45C918.364 1337.64 908.825 1331 892.928 1331.19H861.132V1366.29H892.928C908.825 1366.49 918.364 1359.84 918.364 1348.45ZM913.689 1293.23C913.689 1283.17 905.833 1277.29 892.928 1277.48H861.132V1309.75H892.928C905.833 1309.75 913.689 1303.67 913.689 1293.23ZM939.312 1288.68C939.312 1303.29 930.709 1314.49 916.493 1318.09C933.888 1321.32 944.363 1334.04 944.363 1351.68C944.363 1374.45 925.844 1388.32 895.92 1388.32H836.069V1255.47H894.236C922.105 1255.47 939.312 1268.19 939.312 1288.68" fill="#193554"/>
<path d="M966.803 1388.31H991.866V1255.47H966.803V1388.31Z" fill="#193554"/>
<path d="M1118.11 1255.47V1277.67H1047.23V1310.51H1110.82V1332.71H1047.23V1366.11H1120.36V1388.32H1022.16V1255.47" fill="#193554"/>
<path d="M1168.99 1326.83H1198.53C1217.24 1326.83 1227.71 1318.67 1227.71 1301.96C1227.71 1285.64 1217.24 1277.67 1198.53 1277.67H1168.99V1326.83ZM1225.84 1388.32L1203.21 1349.03C1201.71 1349.21 1200.21 1349.21 1198.53 1349.21H1168.99V1388.32H1143.92V1255.47H1198.53C1232.39 1255.47 1251.65 1271.97 1251.65 1301.2C1251.65 1322.08 1242.48 1337.07 1225.65 1344.28L1254.45 1388.32" fill="#193554"/>
<path d="M1301.03 1255.47L1368.55 1346.37V1255.47H1392.85V1388.32H1369.11L1301.77 1297.6V1388.32H1277.27V1255.47" fill="#193554"/>
<path d="M1438.49 1321.89C1438.49 1346.95 1458.88 1366.68 1483 1366.68C1506.93 1366.68 1526.76 1346.95 1526.76 1321.89C1526.76 1296.84 1506.93 1277.48 1483 1277.48C1458.69 1277.48 1438.49 1296.84 1438.49 1321.89ZM1552.39 1321.89C1552.39 1360.04 1522.09 1389.45 1482.63 1389.45C1443.16 1389.45 1412.87 1360.04 1412.87 1321.89C1412.87 1283.56 1443.16 1254.71 1482.63 1254.71C1522.09 1254.71 1552.39 1283.75 1552.39 1321.89Z" fill="#193554"/>
<path d="M1681.91 1323.12C1682.33 1321.41 1682.56 1319.92 1682.56 1318.65C1682.56 1317.52 1682.4 1316.29 1682.09 1314.96C1681.77 1313.63 1681.21 1312.4 1680.4 1311.25C1679.59 1310.12 1678.51 1309.15 1677.13 1308.32C1675.76 1307.49 1673.96 1307.08 1671.71 1307.08C1667.59 1307.08 1663.57 1308.25 1659.64 1310.59C1655.72 1312.93 1652.04 1316 1648.61 1319.8C1645.17 1323.6 1642.03 1327.93 1639.16 1332.8C1636.29 1337.67 1633.84 1342.6 1631.77 1347.6C1629.72 1352.6 1628.13 1357.44 1627.01 1362.12C1625.88 1366.8 1625.32 1370.92 1625.32 1374.45C1625.32 1378.51 1626.11 1381.8 1627.67 1384.33C1629.21 1386.87 1631.8 1388.12 1635.43 1388.12C1639.04 1388.12 1642.72 1386.99 1646.45 1384.71C1650.2 1382.43 1653.63 1379.71 1656.75 1376.55C1659.87 1373.39 1662.55 1370.23 1664.79 1367.05C1667.03 1363.89 1668.47 1361.43 1669.09 1359.65L1679 1331.76C1680.49 1327.71 1681.47 1324.83 1681.91 1323.12V1323.12ZM1677.6 1373.89C1676.79 1376.92 1676.39 1379.65 1676.39 1382.05C1676.39 1385.35 1677.95 1386.99 1681.05 1386.99C1683.55 1386.99 1685.8 1386.25 1687.79 1384.8C1689.79 1383.35 1691.51 1381.71 1692.93 1379.87C1694.37 1378.04 1695.56 1376.2 1696.49 1374.36C1697.43 1372.53 1698.08 1371.23 1698.45 1370.47L1700.88 1371.8C1700.25 1373.2 1699.32 1374.97 1698.08 1377.12C1696.83 1379.27 1695.21 1381.32 1693.21 1383.28C1691.21 1385.25 1688.92 1386.96 1686.29 1388.41C1683.68 1389.87 1680.61 1390.59 1677.13 1390.59C1668.91 1390.59 1664.79 1386.8 1664.79 1379.2C1664.79 1378.32 1664.97 1376.77 1665.35 1374.55C1665.72 1372.35 1666.21 1370.35 1666.84 1368.57H1666.47C1664.72 1370.73 1662.73 1373.11 1660.48 1375.69C1658.24 1378.29 1655.72 1380.69 1652.91 1382.91C1650.11 1385.12 1647.01 1386.96 1643.65 1388.41C1640.29 1389.87 1636.55 1390.59 1632.43 1390.59C1629.81 1390.59 1627.29 1390.12 1624.85 1389.17C1622.43 1388.21 1620.28 1386.76 1618.4 1384.8C1616.53 1382.84 1615.07 1380.35 1614.01 1377.31C1612.95 1374.27 1612.41 1370.67 1612.41 1366.48C1612.41 1361.43 1613.41 1356.37 1615.41 1351.31C1617.4 1346.24 1620 1341.4 1623.17 1336.79C1626.36 1332.17 1630.03 1327.89 1634.21 1323.97C1638.39 1320.05 1642.63 1316.64 1646.92 1313.72C1651.23 1310.81 1655.47 1308.53 1659.64 1306.89C1663.81 1305.25 1667.53 1304.43 1670.77 1304.43C1674.51 1304.43 1677.69 1305.51 1680.31 1307.65C1682.93 1309.8 1684.24 1312.65 1684.24 1316.19H1684.61L1708.92 1246.72H1692.47L1693.21 1244.07H1722.96L1680.49 1364.4C1679.37 1367.69 1678.41 1370.85 1677.6 1373.89" fill="#193554"/>
<path d="M1757.92 1309.73C1756.43 1307.97 1753.93 1307.08 1750.44 1307.08C1746.57 1307.08 1742.87 1308.23 1739.32 1310.49C1735.76 1312.77 1732.55 1315.59 1729.68 1318.95C1726.81 1322.29 1724.32 1325.91 1722.2 1329.76C1720.08 1333.63 1718.47 1337.2 1717.35 1340.49C1720.21 1340.99 1723.39 1341.24 1726.88 1341.24C1731.37 1341.24 1735.6 1340.55 1739.6 1339.16C1743.59 1337.76 1747.11 1335.93 1750.16 1333.65C1753.21 1331.37 1755.65 1328.72 1757.45 1325.68C1759.27 1322.64 1760.17 1319.48 1760.17 1316.19C1760.17 1313.67 1759.43 1311.51 1757.92 1309.73V1309.73ZM1757.17 1374.55C1755.68 1376.89 1753.63 1379.24 1751 1381.57C1748.39 1383.92 1745.17 1386 1741.37 1387.84C1737.57 1389.67 1732.99 1390.59 1727.63 1390.59C1722.27 1390.59 1717.75 1389.71 1714.07 1387.93C1710.39 1386.16 1707.4 1383.88 1705.09 1381.09C1702.79 1378.32 1701.09 1375.25 1700.04 1371.89C1698.99 1368.55 1698.45 1365.28 1698.45 1362.12C1698.45 1355.8 1699.97 1349.25 1703.03 1342.48C1706.08 1335.71 1710.08 1329.51 1715 1323.88C1719.92 1318.25 1725.51 1313.6 1731.75 1309.93C1737.97 1306.25 1744.33 1304.43 1750.81 1304.43C1753.31 1304.43 1755.8 1304.71 1758.29 1305.28C1760.79 1305.85 1763.04 1306.71 1765.03 1307.84C1767.03 1308.99 1768.65 1310.44 1769.89 1312.2C1771.15 1313.99 1771.76 1316.13 1771.76 1318.65C1771.76 1322.08 1770.87 1325.08 1769.05 1327.68C1767.24 1330.27 1764.91 1332.48 1762.04 1334.32C1759.17 1336.15 1756.03 1337.71 1752.6 1338.97C1749.16 1340.24 1745.83 1341.21 1742.59 1341.91C1739.35 1342.6 1736.39 1343.12 1733.71 1343.43C1731.03 1343.75 1729.05 1343.91 1727.81 1343.91C1725.69 1343.91 1723.64 1343.84 1721.64 1343.71C1719.64 1343.59 1717.91 1343.4 1716.4 1343.15C1715.03 1347.2 1713.88 1351.21 1712.95 1355.2C1712.01 1359.17 1711.55 1363.39 1711.55 1367.81C1711.55 1374.65 1713.29 1379.75 1716.77 1383.09C1720.27 1386.45 1724.69 1388.12 1730.05 1388.12C1734.04 1388.12 1737.57 1387.33 1740.63 1385.75C1743.68 1384.17 1746.36 1382.31 1748.67 1380.15C1750.97 1378 1752.91 1375.83 1754.47 1373.6C1756.03 1371.39 1757.31 1369.65 1758.29 1368.39L1760.55 1369.71C1759.8 1370.6 1758.67 1372.21 1757.17 1374.55" fill="#193554"/>
<path d="M564.415 1494.95H602.555V1555.93C586.36 1567.17 559.94 1575.4 538.632 1575.4C492.393 1575.4 458.299 1542.31 458.299 1497.76C458.299 1453.43 493.457 1420.55 541.613 1420.55C564.415 1420.55 588.917 1429.41 604.687 1443.48L579.544 1474.4C569.316 1464.45 554.4 1457.97 541.401 1457.97C519.88 1457.97 503.687 1475.05 503.687 1497.76C503.687 1520.89 520.093 1537.76 541.827 1537.76C548.005 1537.76 556.316 1535.6 564.415 1531.93" fill="#193554"/>
<path d="M693.124 1537.76C707.827 1537.76 718.267 1527.17 718.267 1509.44V1421.85H762.589V1509.44C762.589 1549.67 735.527 1575.4 692.912 1575.4C650.081 1575.4 622.168 1549.67 622.168 1509.44V1421.85H666.488V1509.44C666.488 1526.96 678.208 1537.76 693.124 1537.76" fill="#193554"/>
<path d="M869.992 1516.36L852.092 1466.83L833.767 1516.36H869.992ZM881.711 1549.23H821.408L812.459 1573.45H766.859L830.572 1421.85H876.172L937.751 1573.45H890.447" fill="#193554"/>
<path d="M1051.97 1421.85V1457.75H1008.51V1573.45H963.972V1457.75H920.716V1421.85" fill="#193554"/>
<path d="M1187.92 1421.85V1456.45H1110.15V1480.24H1180.68V1514.84H1110.15V1538.85H1190.05V1573.45H1065.83V1421.85" fill="#193554"/>
<path d="M1258.89 1421.85L1294.91 1505.76L1330.91 1421.85H1378.43V1573.45H1339.65L1339.44 1483.71L1309.39 1558.53H1280.41L1250.37 1483.71V1573.45H1211.37V1421.85" fill="#193554"/>
<path d="M1492.44 1516.36L1474.55 1466.83L1456.21 1516.36H1492.44ZM1504.16 1549.23H1443.85L1434.91 1573.45H1389.31L1453.03 1421.85H1498.63L1560.2 1573.45H1512.89" fill="#193554"/>
<path d="M1615.4 1421.85V1535.83H1678.04V1573.45H1571.08V1421.85" fill="#193554"/>
<path d="M1782.45 1516.36L1764.56 1466.83L1746.24 1516.36H1782.45ZM1794.17 1549.23H1733.88L1724.92 1573.45H1679.32L1743.04 1421.85H1788.64L1850.21 1573.45H1802.92" fill="#193554"/>
<path d="M650.849 1625.88C650.849 1620.73 647.145 1617.24 641.935 1617.24H636.54V1634.43H642.357C647.332 1634.43 650.849 1630.99 650.849 1625.88V1625.88ZM659.625 1625.8C659.625 1634.68 652.445 1640.72 641.795 1640.72H627.955V1610.91H642.125C652.54 1610.91 659.625 1616.95 659.625 1625.8" fill="#3D88C6"/>
<path d="M686.547 1626.27H692.785C696.257 1626.27 698.276 1624.64 698.276 1621.63C698.276 1618.69 696.257 1617.12 692.785 1617.12H686.547V1626.27ZM697.712 1640.72L692.927 1632.47H686.547V1640.72H677.959V1610.91H692.74C701.467 1610.91 706.439 1614.73 706.439 1621.37C706.439 1625.88 704.376 1629.2 700.575 1630.99L707.424 1640.72" fill="#3D88C6"/>
<path d="M732.565 1637.36C732.565 1639.53 730.875 1641.05 728.529 1641.05C726.183 1641.05 724.54 1639.53 724.54 1637.36C724.54 1635.19 726.183 1633.71 728.529 1633.71C730.875 1633.71 732.565 1635.19 732.565 1637.36Z" fill="#3D88C6"/>
<path d="M799.084 1629.49L794.579 1618.87L789.981 1629.49H799.084ZM801.619 1635.44H787.4L785.101 1640.72H776.28L790.403 1610.91H799.223L813.019 1640.72H803.868" fill="#3D88C6"/>
<path d="M838.627 1610.91V1634.08H852.561V1640.72H830.041V1610.91" fill="#3D88C6"/>
<path d="M896.469 1610.91V1617.12H879.111V1622.69H894.781V1628.85L879.111 1628.89V1634.51H896.941V1640.72H870.524V1610.91" fill="#3D88C6"/>
<path d="M924.283 1641.05C919.544 1641.05 915.743 1639.32 912.835 1636.25L916.775 1630.93C919.169 1633.19 921.748 1634.29 923.672 1634.29C925.783 1634.29 927.097 1633.11 927.097 1630.85V1617.33H915.837V1610.91H935.731V1631.03C935.731 1637.4 931.32 1641.05 924.283 1641.05" fill="#3D88C6"/>
<path d="M974.056 1629.49L969.551 1618.87L964.953 1629.49H974.056ZM976.591 1635.44H962.372L960.073 1640.72H951.252L965.375 1610.91H974.196L987.991 1640.72H978.84" fill="#3D88C6"/>
<path d="M1012.57 1610.91L1027.49 1628.85V1610.91H1035.46V1640.72H1027.96L1013.04 1622.87V1640.72H1005.01V1610.91" fill="#3D88C6"/>
<path d="M1078.85 1625.88C1078.85 1620.73 1075.15 1617.24 1069.94 1617.24H1064.54V1634.43H1070.36C1075.33 1634.43 1078.85 1630.99 1078.85 1625.88V1625.88ZM1087.63 1625.8C1087.63 1634.68 1080.45 1640.72 1069.8 1640.72H1055.96V1610.91H1070.13C1080.54 1610.91 1087.63 1616.95 1087.63 1625.8" fill="#3D88C6"/>
<path d="M1114.55 1626.27H1120.79C1124.26 1626.27 1126.28 1624.64 1126.28 1621.63C1126.28 1618.69 1124.26 1617.12 1120.79 1617.12H1114.55V1626.27ZM1125.71 1640.72L1120.93 1632.47H1114.55V1640.72H1105.96V1610.91H1120.74C1129.47 1610.91 1134.44 1614.73 1134.44 1621.37C1134.44 1625.88 1132.37 1629.2 1128.58 1630.99L1135.43 1640.72" fill="#3D88C6"/>
<path d="M1160.71 1625.84C1160.71 1630.68 1164.88 1634.43 1169.76 1634.43C1174.69 1634.43 1178.63 1630.68 1178.63 1625.84C1178.63 1620.99 1174.69 1617.33 1169.76 1617.33C1164.84 1617.33 1160.71 1620.99 1160.71 1625.84ZM1187.45 1625.8C1187.45 1634.51 1179.85 1641.07 1169.67 1641.07C1159.49 1641.07 1151.89 1634.51 1151.89 1625.8C1151.89 1617.12 1159.49 1610.69 1169.67 1610.69C1179.85 1610.69 1187.45 1617.16 1187.45 1625.8Z" fill="#3D88C6"/>
<path d="M1255.71 1625.49H1263.12V1637.23C1259.6 1639.44 1254.01 1641.07 1249.41 1641.07C1239.37 1641.07 1231.83 1634.51 1231.83 1625.84C1231.83 1617.16 1239.56 1610.69 1249.97 1610.69C1254.91 1610.69 1260.11 1612.4 1263.49 1615.12L1258.61 1620.56C1256.27 1618.56 1252.93 1617.29 1249.93 1617.29C1244.63 1617.29 1240.64 1620.99 1240.64 1625.84C1240.64 1630.72 1244.68 1634.43 1250.03 1634.43C1251.67 1634.43 1253.73 1633.92 1255.71 1633.03" fill="#3D88C6"/>
<path d="M1282.85 1640.72H1291.44V1610.91H1282.85V1640.72Z" fill="#3D88C6"/>
<path d="M1331.27 1629.49L1326.77 1618.87L1322.17 1629.49H1331.27ZM1333.8 1635.44H1319.59L1317.29 1640.72H1308.47L1322.6 1610.91H1331.41L1345.21 1640.72H1336.05" fill="#3D88C6"/>
<path d="M1371.61 1610.91L1380.33 1628.31L1389.07 1610.91H1398.45V1640.72H1390.85L1390.8 1621.84L1383.16 1637.75H1377.52L1369.88 1621.84V1640.72H1362.23V1610.91" fill="#3D88C6"/>
<path d="M1428.28 1610.91L1437 1628.31L1445.73 1610.91H1455.12V1640.72H1447.52L1447.47 1621.84L1439.83 1637.75H1434.19L1426.55 1621.84V1640.72H1418.89V1610.91" fill="#3D88C6"/>
<path d="M1494.95 1629.49L1490.44 1618.87L1485.84 1629.49H1494.95ZM1497.48 1635.44H1483.25L1480.96 1640.72H1472.13L1486.27 1610.91H1495.08L1508.88 1640.72H1499.73" fill="#3D88C6"/>
<path d="M1547.72 1610.91V1617.33H1537.87V1640.72H1529.28V1617.33H1519.52V1610.91" fill="#3D88C6"/>
<path d="M1590.59 1610.91V1617.33H1580.73V1640.72H1572.15V1617.33H1562.39V1610.91" fill="#3D88C6"/>
<path d="M1634.08 1610.91V1617.12H1616.72V1622.69H1632.39V1628.85L1616.72 1628.89V1634.51H1634.55V1640.72H1608.13V1610.91" fill="#3D88C6"/>
<path d="M1653.87 1640.72H1662.45V1610.91H1653.87V1640.72Z" fill="#3D88C6"/>
</svg>
