<?xml version="1.0" encoding="UTF-8" standalone="no"?>
<!-- Created with Inkscape (http://www.inkscape.org/) -->

<svg
   xmlns:dc="http://purl.org/dc/elements/1.1/"
   xmlns:cc="http://creativecommons.org/ns#"
   xmlns:rdf="http://www.w3.org/1999/02/22-rdf-syntax-ns#"
   xmlns:svg="http://www.w3.org/2000/svg"
   xmlns="http://www.w3.org/2000/svg"
   xmlns:sodipodi="http://sodipodi.sourceforge.net/DTD/sodipodi-0.dtd"
   xmlns:inkscape="http://www.inkscape.org/namespaces/inkscape"
   width="24.879848mm"
   height="5.4604115mm"
   viewBox="0 0 88.156945 19.347915"
   id="svg4501"
   version="1.1"
   inkscape:version="0.91 r13725"
   sodipodi:docname="Bloom On Dark.svg">
  <defs
     id="defs4503">
    <pattern
       y="0"
       x="0"
       height="6"
       width="6"
       patternUnits="userSpaceOnUse"
       id="EMFhbasepattern" />
  </defs>
  <sodipodi:namedview
     id="base"
     pagecolor="#ffffff"
     bordercolor="#666666"
     borderopacity="1.0"
     inkscape:pageopacity="0.0"
     inkscape:pageshadow="2"
     inkscape:zoom="1.4"
     inkscape:cx="-58.868547"
     inkscape:cy="-100.70441"
     inkscape:document-units="px"
     inkscape:current-layer="layer1"
     showgrid="false"
     fit-margin-top="0"
     fit-margin-left="0"
     fit-margin-right="0"
     fit-margin-bottom="0"
     inkscape:window-width="1706"
     inkscape:window-height="1177"
     inkscape:window-x="1192"
     inkscape:window-y="468"
     inkscape:window-maximized="1" />
  <metadata
     id="metadata4506">
    <rdf:RDF>
      <cc:Work
         rdf:about="">
        <dc:format>image/svg+xml</dc:format>
        <dc:type
           rdf:resource="http://purl.org/dc/dcmitype/StillImage" />
        <dc:title />
      </cc:Work>
    </rdf:RDF>
  </metadata>
  <g
     inkscape:label="Layer 1"
     inkscape:groupmode="layer"
     id="layer1"
     transform="translate(513.83742,-544.09858)">
    <path
       inkscape:connector-curvature="0"
       id="path7214"
       d="m -493.49802,546.59626 c 0.55033,-0.0635 1.22763,-0.127 2.0108,-0.16933 0.80433,-0.0423 1.73567,-0.0635 2.79397,-0.0635 2.01084,0 3.55592,0.38099 4.63542,1.12182 1.05833,0.74083 1.5875,1.778 1.5875,3.0903 0,0.86784 -0.21167,1.60867 -0.67734,2.20134 -0.4445,0.59266 -1.12183,1.07947 -2.01083,1.46047 1.05833,0.381 1.86267,0.889 2.413,1.54516 0.55033,0.65617 0.8255,1.48167 0.8255,2.45531 0,1.50283 -0.59267,2.68817 -1.75683,3.55597 -1.16417,0.86784 -2.85742,1.31234 -5.10108,1.31234 -0.95248,0 -1.84148,-0.0212 -2.70931,-0.0635 -0.84667,-0.0423 -1.5028,-0.10584 -2.0108,-0.16934 l 0,-16.27704 m 4.88944,14.64724 c 1.397,0 2.4765,-0.23284 3.25958,-0.74084 0.762,-0.48683 1.143,-1.22766 1.143,-2.18016 0,-0.93131 -0.381,-1.65098 -1.143,-2.18014 -0.76191,-0.52917 -1.84141,-0.80434 -3.25958,-0.80434 l -2.66697,0 0,5.77848 c 0.80433,0.0847 1.69333,0.127 2.66697,0.127 m -0.10583,-7.64111 c 1.22766,0 2.2225,-0.254 2.94216,-0.762 0.71958,-0.48684 1.07942,-1.16417 1.07942,-1.98967 0,-0.889 -0.35984,-1.5663 -1.07942,-2.0108 -0.6985,-0.4445 -1.69333,-0.67734 -2.94216,-0.67734 -0.50798,0 -0.97364,0.0212 -1.39698,0.0423 -0.42333,0.0212 -0.80433,0.0423 -1.16416,0.0847 l 0,5.31281 z m 10.85841,5.29161 c 0,0.84666 0.16933,1.4605 0.52917,1.86266 0.33866,0.40217 0.8255,0.61381 1.4605,0.61381 0.29633,0 0.5715,-0.0423 0.86783,-0.10583 0.27517,-0.0635 0.52917,-0.14814 0.74083,-0.25398 l 0.508,1.71448 c -0.27516,0.127 -0.61383,0.23283 -1.03716,0.3175 -0.42334,0.10583 -0.86784,0.14816 -1.37584,0.14816 -0.52916,0 -1.03716,-0.0847 -1.50283,-0.23283 -0.46567,-0.14817 -0.86783,-0.40217 -1.2065,-0.71967 -0.33867,-0.33866 -0.61383,-0.762 -0.80433,-1.26997 -0.1905,-0.508 -0.29634,-1.143 -0.29634,-1.86267 l 0,-13.48306 2.11667,0 z m 14.2875,-2.05314 c 0,-0.61384 -0.10583,-1.18534 -0.29633,-1.73567 -0.1905,-0.55033 -0.46567,-1.016 -0.8255,-1.41816 -0.33867,-0.42331 -0.762,-0.74081 -1.22767,-0.97364 -0.48683,-0.254 -0.99483,-0.35984 -1.56633,-0.35984 -1.22767,0 -2.18017,0.40217 -2.87867,1.2065 -0.67733,0.80431 -1.016,1.88381 -1.016,3.21731 0,0.61383 0.0847,1.20647 0.29633,1.7568 0.1905,0.55034 0.46567,1.03717 0.80434,1.43934 0.35983,0.42333 0.762,0.74083 1.24883,0.99483 0.46567,0.23283 0.99483,0.35981 1.54517,0.35981 0.61383,0 1.16416,-0.10581 1.62983,-0.33864 0.48683,-0.21167 0.91017,-0.52917 1.22767,-0.91017 0.33866,-0.40217 0.59266,-0.86783 0.78316,-1.41817 0.16934,-0.55033 0.27517,-1.16416 0.27517,-1.8203 m -9.9695,0 c 0,-0.99483 0.14817,-1.86267 0.46567,-2.667 0.3175,-0.78314 0.74083,-1.43931 1.27,-1.98964 0.55033,-0.55033 1.18533,-0.97367 1.92616,-1.27 0.74084,-0.29633 1.54517,-0.4445 2.39184,-0.4445 0.84666,0 1.62983,0.14817 2.37066,0.4445 0.74084,0.29633 1.397,0.71967 1.92617,1.27 0.55033,0.55033 0.97367,1.2065 1.29117,1.98964 0.3175,0.78317 0.46566,1.651 0.46566,2.6035 0,0.97364 -0.14816,1.86264 -0.4445,2.6458 -0.3175,0.78317 -0.74083,1.4605 -1.29116,2.01081 -0.52917,0.5715 -1.18534,0.99483 -1.92617,1.31233 -0.74083,0.29634 -1.524,0.4445 -2.39183,0.4445 -0.86784,0 -1.67217,-0.14816 -2.413,-0.46566 -0.74084,-0.3175 -1.37584,-0.74084 -1.92617,-1.31234 -0.52917,-0.5503 -0.9525,-1.22764 -1.24883,-2.0108 -0.3175,-0.78317 -0.46567,-1.62984 -0.46567,-2.56114 z m 23.57939,0 c 0,-0.61384 -0.0847,-1.18534 -0.27517,-1.73567 -0.21167,-0.55033 -0.46567,-1.016 -0.8255,-1.41816 -0.35983,-0.42331 -0.762,-0.74081 -1.24883,-0.97364 -0.46567,-0.254 -0.99484,-0.35984 -1.54517,-0.35984 -1.22767,0 -2.18017,0.40217 -2.87839,1.2065 -0.67733,0.80431 -1.016,1.88381 -1.016,3.21731 0,0.61383 0.0847,1.20647 0.27517,1.7568 0.21167,0.55034 0.46567,1.03717 0.82522,1.43934 0.35983,0.42333 0.762,0.74083 1.24883,0.99483 0.46567,0.23283 0.97367,0.35981 1.54517,0.35981 0.61383,0 1.143,-0.10581 1.62983,-0.33864 0.48684,-0.21167 0.889,-0.52917 1.22767,-0.91017 0.33867,-0.40217 0.59267,-0.86783 0.78317,-1.41817 0.16933,-0.55033 0.254,-1.16416 0.254,-1.8203 m -9.94806,0 c 0,-0.99483 0.14817,-1.86267 0.46567,-2.667 0.3175,-0.78314 0.74083,-1.43931 1.27,-1.98964 0.55033,-0.55033 1.18533,-0.97367 1.92589,-1.27 0.74083,-0.29633 1.524,-0.4445 2.39183,-0.4445 0.84667,0 1.62983,0.14817 2.37067,0.4445 0.74083,0.29633 1.37583,0.71967 1.92616,1.27 0.55034,0.55033 0.97367,1.2065 1.29117,1.98964 0.3175,0.78317 0.46567,1.651 0.46567,2.6035 0,0.97364 -0.14817,1.86264 -0.46567,2.6458 -0.29633,0.78317 -0.71967,1.4605 -1.27,2.01081 -0.52917,0.5715 -1.18533,0.99483 -1.92617,1.31233 -0.74083,0.29634 -1.54516,0.4445 -2.39183,0.4445 -0.86783,0 -1.67217,-0.14816 -2.413,-0.46566 -0.74055,-0.3175 -1.39672,-0.74084 -1.92589,-1.31234 -0.52916,-0.5503 -0.9525,-1.22764 -1.27,-2.0108 -0.29633,-0.78317 -0.4445,-1.62984 -0.4445,-2.56114 z m 15.93822,-4.04281 c 0.4445,-0.65616 0.97367,-1.2065 1.651,-1.651 0.65617,-0.4445 1.41817,-0.67733 2.30717,-0.67733 0.9525,0 1.73567,0.23283 2.3495,0.6985 0.61383,0.46567 1.03717,1.0795 1.31233,1.88383 0.48684,-0.71966 1.05834,-1.3335 1.7145,-1.82033 0.65617,-0.508 1.48167,-0.762 2.4765,-0.762 0.65617,0 1.22767,0.10583 1.7145,0.33867 0.48684,0.21166 0.889,0.52916 1.22767,0.91016 0.3175,0.40217 0.5715,0.889 0.74083,1.43934 0.14817,0.5503 0.23284,1.16414 0.23284,1.8203 l 0,7.93745 -2.0955,0 0,-7.76812 c 0,-0.84666 -0.1905,-1.52397 -0.59267,-2.03197 -0.381,-0.52916 -0.93133,-0.78316 -1.60867,-0.78316 -0.35983,0 -0.6985,0.0635 -1.03716,0.21166 -0.3175,0.127 -0.635,0.3175 -0.93134,0.5715 -0.29633,0.23284 -0.5715,0.508 -0.84666,0.82548 -0.254,0.31749 -0.508,0.65616 -0.71967,0.99483 l 0,7.97978 -2.0955,0 0,-7.76812 c 0,-0.84666 -0.1905,-1.52397 -0.59267,-2.03197 -0.381,-0.52916 -0.93133,-0.78316 -1.60866,-0.78316 -0.33867,0 -0.67734,0.0635 -1.016,0.1905 -0.3175,0.127 -0.635,0.3175 -0.93134,0.55033 -0.3175,0.23283 -0.59266,0.508 -0.86783,0.82547 -0.254,0.29633 -0.48683,0.635 -0.71967,0.97367 l 0,8.04328 -2.0955,0 0,-12.14959 2.032,0 z"
       style="fill:#d65649;fill-opacity:1;fill-rule:nonzero;stroke:none"
       inkscape:export-filename="X:\dev\BloomLibrary\src\assets\NavBarLogo.png"
       inkscape:export-xdpi="325.61646"
       inkscape:export-ydpi="325.61646" />
    <path
       inkscape:connector-curvature="0"
       id="path7216"
       d="m -474.72333,549.70775 c 0.0847,-0.0423 0.14816,-0.0423 0.16933,-0.0635 0.71967,-0.21167 1.22767,-0.3175 1.524,-0.3175 0.23283,0 0.35983,0.0847 0.35983,0.254 0,0.0635 -0.0423,0.127 -0.0847,0.16933 -0.0635,0.0635 -0.10583,0.0846 -0.16933,0.0846 -0.0423,0 -0.0847,0 -0.14817,-0.0211 -0.0423,0 -0.0847,0 -0.10583,0 -0.1905,0 -0.42333,0.0423 -0.71967,0.10581 -0.10583,0.0423 -0.3175,0.127 -0.61383,0.27516 -0.21167,0.0847 -0.381,0.127 -0.508,0.127 -0.10583,0 -0.16933,-0.0423 -0.23283,-0.127 -0.0635,-0.0847 -0.0847,-0.16933 -0.0847,-0.27516 0,-0.10581 0.0635,-0.29631 0.1905,-0.57147 0.381,-0.8255 0.78316,-1.56634 1.22766,-2.24367 0.61384,-0.93132 1.10067,-1.62982 1.4605,-2.07431 0.0847,-0.127 0.1905,-0.254 0.27517,-0.381 0.14817,-0.1905 0.29633,-0.29633 0.40217,-0.29633 0.0423,0 0.10583,0.0212 0.14816,0.0635 0.0423,0.0423 0.0635,0.0847 0.0635,0.127 0,0.0847 -0.0635,0.19049 -0.16933,0.31749 -0.0212,0.0423 -0.14817,0.1905 -0.381,0.508 -0.42333,0.5715 -0.762,1.01599 -0.97367,1.31232 -0.21166,0.29633 -0.4445,0.65616 -0.67733,1.05833 -0.46567,0.78317 -0.80433,1.43933 -0.9525,1.9685 z"
       style="fill:#e6e6e6;fill-opacity:1;fill-rule:nonzero;stroke:none"
       inkscape:export-filename="X:\dev\BloomLibrary\src\assets\NavBarLogo.png"
       inkscape:export-xdpi="325.61646"
       inkscape:export-ydpi="325.61646" />
    <path
       inkscape:connector-curvature="0"
       id="path7218"
       d="m -471.97167,549.19975 0,0.0847 c 0,0.0635 0.0212,0.127 0.0423,0.16933 0.0847,0.127 0.21167,0.16933 0.381,0.16933 0.381,0 0.8255,-0.29633 1.3335,-0.86783 0.0847,-0.10583 0.16934,-0.14817 0.21167,-0.14817 0.0423,0 0.0635,0 0.10583,0.0423 0.0212,0.0212 0.0212,0.0423 0.0212,0.0635 0,0.127 -0.14816,0.3175 -0.4445,0.61383 -0.23283,0.21167 -0.46566,0.40217 -0.74083,0.5503 -0.254,0.127 -0.48683,0.21167 -0.71967,0.21167 -0.23283,0 -0.40216,-0.0847 -0.52916,-0.254 -0.10584,-0.1058 -0.14817,-0.25397 -0.14817,-0.44447 0,-0.508 0.254,-1.016 0.74083,-1.524 0.381,-0.40217 0.74084,-0.59267 1.03717,-0.59267 0.0635,0 0.14817,0.0212 0.21167,0.0635 0.0847,0.0635 0.10583,0.14817 0.10583,0.254 0,0.16934 -0.0635,0.35984 -0.21167,0.59267 -0.3175,0.48683 -0.78316,0.8255 -1.397,1.016 z m 0.10584,-0.35983 c 0.21166,-0.0635 0.381,-0.14817 0.48683,-0.23284 0.23283,-0.16933 0.40217,-0.35983 0.52917,-0.5715 0.0423,-0.0635 0.0635,-0.14816 0.0635,-0.1905 0,-0.0635 -0.0423,-0.10583 -0.0847,-0.10583 -0.0847,0 -0.1905,0.0635 -0.33867,0.1905 -0.27516,0.21167 -0.48683,0.508 -0.65616,0.91017 z"
       style="fill:#e6e6e6;fill-opacity:1;fill-rule:nonzero;stroke:none"
       inkscape:export-filename="X:\dev\BloomLibrary\src\assets\NavBarLogo.png"
       inkscape:export-xdpi="325.61646"
       inkscape:export-ydpi="325.61646" />
    <path
       inkscape:connector-curvature="0"
       id="path7220"
       d="m -468.05583,547.12542 c -0.21167,0.3175 -0.381,0.65616 -0.55034,1.03716 -0.254,0.55034 -0.35983,0.9525 -0.35983,1.22767 0,0.0635 0,0.127 0.0423,0.16933 0.0212,0.0423 0.0847,0.0635 0.14817,0.0635 0.14817,0 0.33867,-0.14816 0.55033,-0.42333 0.127,-0.1905 0.254,-0.35983 0.35983,-0.55033 0.0635,-0.0847 0.12701,-0.14817 0.19051,-0.14817 0.0423,0 0.0847,0.0212 0.10583,0.0423 0.0212,0.0212 0.0423,0.0635 0.0423,0.0847 0,0.10583 -0.14817,0.35983 -0.4445,0.762 -0.35983,0.46564 -0.67733,0.69847 -0.97367,0.69847 -0.16933,0 -0.29633,-0.0635 -0.40216,-0.21167 -0.0635,-0.0846 -0.0847,-0.21163 -0.0847,-0.38097 0,-0.381 0.10583,-0.80433 0.3175,-1.31233 0.0423,-0.10583 0.1905,-0.40217 0.42333,-0.86783 -0.0847,0.0212 -0.14817,0.0212 -0.1905,0.0212 -0.0635,0 -0.10583,-0.0212 -0.16934,-0.0423 -0.0635,-0.0423 -0.0847,-0.10583 -0.0847,-0.16933 0,-0.0635 0.0423,-0.127 0.12699,-0.16934 0.0212,-0.0212 0.127,-0.0423 0.33867,-0.0635 0.0635,-0.0212 0.16934,-0.0423 0.3175,-0.0847 0.10584,-0.1905 0.27517,-0.46566 0.52917,-0.78316 0.127,-0.1905 0.23283,-0.31749 0.27517,-0.35983 0.0847,-0.0847 0.14816,-0.127 0.1905,-0.127 0.0423,0 0.0847,0.0212 0.127,0.0635 0.0423,0.0423 0.0423,0.0847 0.0423,0.127 0,0.0847 -0.0847,0.23283 -0.254,0.46567 -0.10584,0.14816 -0.1905,0.27516 -0.254,0.38099 0.33866,-0.10583 0.59266,-0.14816 0.74083,-0.14816 0.16933,0 0.254,0.0847 0.254,0.21166 0,0.0847 -0.0423,0.127 -0.0847,0.16933 -0.0423,0.0212 -0.127,0.0212 -0.254,0.0423 -0.0423,0 -0.27517,0.0423 -0.67734,0.16932 -0.127,0.0423 -0.23283,0.0635 -0.33866,0.10583 z"
       style="fill:#e6e6e6;fill-opacity:1;fill-rule:nonzero;stroke:none"
       inkscape:export-filename="X:\dev\BloomLibrary\src\assets\NavBarLogo.png"
       inkscape:export-xdpi="325.61646"
       inkscape:export-ydpi="325.61646" />
    <path
       inkscape:connector-curvature="0"
       id="path7222"
       d="m -464.60567,544.09861 c 0.0423,0 0.0847,0.0212 0.127,0.0423 0.0423,0.0423 0.0847,0.0847 0.0847,0.14817 0,0.14816 -0.1905,0.55033 -0.55033,1.24882 -0.127,0.254 -0.23283,0.40217 -0.29633,0.4445 -0.0423,0.0423 -0.10584,0.0635 -0.14817,0.0635 -0.10583,0 -0.14817,-0.0635 -0.14817,-0.21167 0,-0.0847 0.0423,-0.23283 0.14817,-0.44449 0.27517,-0.55033 0.42333,-0.84666 0.4445,-0.91016 0.0847,-0.254 0.21166,-0.381 0.33866,-0.381 z"
       style="fill:#e6e6e6;fill-opacity:1;fill-rule:nonzero;stroke:none"
       inkscape:export-filename="X:\dev\BloomLibrary\src\assets\NavBarLogo.png"
       inkscape:export-xdpi="325.61646"
       inkscape:export-ydpi="325.61646" />
    <path
       inkscape:connector-curvature="0"
       id="path7224"
       d="m -464.16117,547.04075 c 0.1905,0 0.33867,0.0212 0.42334,0.0847 0.10583,0.0847 0.14816,0.1905 0.14816,0.3175 0,0.1905 -0.0635,0.35983 -0.21166,0.52916 -0.127,0.14817 -0.3175,0.27517 -0.5715,0.381 -0.14817,0.0423 -0.254,0.0847 -0.35984,0.0847 -0.127,0 -0.1905,-0.0635 -0.1905,-0.16933 0,-0.0847 0.0423,-0.14817 0.10584,-0.1905 0.0212,0 0.127,-0.0212 0.3175,-0.0635 0.127,-0.0212 0.21166,-0.0847 0.3175,-0.16934 0.0847,-0.0635 0.127,-0.14816 0.127,-0.23283 0,-0.0635 -0.0212,-0.10583 -0.0635,-0.127 -0.0212,-0.0423 -0.0847,-0.0635 -0.16934,-0.0635 -0.16933,0 -0.35983,0.0847 -0.5715,0.23283 -0.254,0.14817 -0.381,0.33867 -0.381,0.5715 0,0.14817 0.0847,0.35984 0.254,0.59267 0.16934,0.254 0.254,0.48683 0.254,0.65617 0,0.27516 -0.10583,0.4868 -0.35983,0.63497 -0.14817,0.10583 -0.29633,0.14816 -0.48683,0.14816 -0.29634,0 -0.52917,-0.10583 -0.67734,-0.3175 -0.10583,-0.14813 -0.16933,-0.31747 -0.16933,-0.52913 0,-0.23284 0.0635,-0.4445 0.1905,-0.61384 0.0847,-0.10583 0.16933,-0.14816 0.254,-0.14816 0.0847,0 0.10583,0.0212 0.10583,0.0847 0,0.0212 0,0.0635 -0.0423,0.10584 -0.0635,0.14816 -0.10583,0.29633 -0.10583,0.46566 0,0.14817 0.0635,0.27517 0.16933,0.381 0.0847,0.10584 0.21167,0.14814 0.3175,0.14814 0.127,0 0.21167,-0.0423 0.29634,-0.12697 0.0423,-0.0635 0.0847,-0.14817 0.0847,-0.254 0,-0.127 -0.0847,-0.29633 -0.23284,-0.508 -0.1905,-0.27517 -0.29633,-0.52917 -0.29633,-0.762 0,-0.29633 0.16933,-0.5715 0.48683,-0.80433 0.33867,-0.23284 0.67734,-0.33867 1.03717,-0.33867 z"
       style="fill:#e6e6e6;fill-opacity:1;fill-rule:nonzero;stroke:none"
       inkscape:export-filename="X:\dev\BloomLibrary\src\assets\NavBarLogo.png"
       inkscape:export-xdpi="325.61646"
       inkscape:export-ydpi="325.61646" />
    <path
       inkscape:connector-curvature="0"
       id="path7226"
       d="m -460.16067,549.68658 c 0.33867,-0.23283 0.5715,-0.4445 0.74084,-0.65616 0.23283,-0.27517 0.40216,-0.508 0.508,-0.67734 0.0423,-0.0847 0.0847,-0.127 0.14816,-0.127 0.0635,0 0.10584,0.0423 0.10584,0.10584 0,0.0847 -0.0635,0.21166 -0.16934,0.40216 -0.35983,0.59267 -0.91016,1.10064 -1.62983,1.54514 -0.33867,0.6985 -0.59267,1.18533 -0.74083,1.43933 -0.42334,0.65617 -0.8255,0.99484 -1.2065,0.99484 -0.1905,0 -0.33867,-0.0847 -0.42334,-0.23284 -0.0423,-0.0847 -0.0635,-0.1905 -0.0635,-0.29633 0,-0.48683 0.29634,-0.9525 0.93134,-1.397 0.0847,-0.0635 0.48683,-0.29633 1.18533,-0.67733 0.127,-0.29631 0.23283,-0.50797 0.3175,-0.67731 -0.33867,0.33867 -0.59267,0.50797 -0.80433,0.50797 -0.127,0 -0.23284,-0.0635 -0.3175,-0.21163 -0.0423,-0.0847 -0.0635,-0.16934 -0.0635,-0.27517 0,-0.21167 0.0847,-0.48683 0.27516,-0.84667 0.254,-0.48683 0.5715,-0.889 0.93134,-1.18533 0.29633,-0.23283 0.5715,-0.35983 0.80433,-0.35983 0.10583,0 0.21167,0.0423 0.29633,0.127 0.0635,0.0635 0.0847,0.14816 0.0847,0.254 0,0.14816 -0.0423,0.3175 -0.127,0.52916 0.0635,0.0635 0.10584,0.127 0.10584,0.14817 0,0.0212 -0.0212,0.0635 -0.0635,0.10583 -0.0635,0.10584 -0.21167,0.3175 -0.381,0.635 -0.16934,0.27517 -0.3175,0.55034 -0.4445,0.8255 z m -0.0212,-1.05833 c -0.0423,-0.0423 -0.0635,-0.0847 -0.0635,-0.10583 0,-0.0212 0.0212,-0.0423 0.0635,-0.10584 0.14817,-0.127 0.27517,-0.29633 0.381,-0.4445 0.0635,-0.127 0.10584,-0.23283 0.10584,-0.29633 0,-0.0847 -0.0423,-0.127 -0.10584,-0.127 -0.14816,0 -0.3175,0.127 -0.5715,0.381 -0.29633,0.29633 -0.52916,0.635 -0.67733,0.99483 -0.0847,0.1905 -0.127,0.3175 -0.127,0.42334 0,0.0423 0.0212,0.0847 0.0423,0.127 0.0212,0.0212 0.0635,0.0423 0.10583,0.0423 0.10584,0 0.254,-0.127 0.4445,-0.33867 0.127,-0.14817 0.23284,-0.27517 0.3175,-0.40217 0.0635,-0.10583 0.0847,-0.14816 0.0847,-0.14816 z m -0.86783,2.0108 c -0.40217,0.16934 -0.762,0.42334 -1.0795,0.78317 -0.14817,0.14817 -0.23283,0.33867 -0.29633,0.508 -0.0212,0.0635 -0.0423,0.10583 -0.0423,0.14817 0,0.0212 0.0212,0.0635 0.0423,0.10583 0.0212,0.0423 0.0847,0.0847 0.127,0.0847 0.1905,0 0.42333,-0.21167 0.67733,-0.61384 0.21167,-0.35983 0.40217,-0.6985 0.5715,-1.016 z"
       style="fill:#e6e6e6;fill-opacity:1;fill-rule:nonzero;stroke:none"
       inkscape:export-filename="X:\dev\BloomLibrary\src\assets\NavBarLogo.png"
       inkscape:export-xdpi="325.61646"
       inkscape:export-ydpi="325.61646" />
    <path
       inkscape:connector-curvature="0"
       id="path7228"
       d="m -457.79,548.56475 c 0.29633,-0.3175 0.65617,-0.635 1.03717,-0.93133 0.14788,-0.10584 0.29605,-0.21167 0.44422,-0.3175 0.0847,-0.0423 0.14816,-0.0635 0.16933,-0.0635 0.0423,0 0.0847,0.0423 0.127,0.10583 0.0212,0.0423 0.0423,0.0635 0.0423,0.10583 0,0.0423 -0.0635,0.127 -0.16933,0.21167 -0.3175,0.254 -0.46567,0.4445 -0.46567,0.5715 0,0.0635 0.0423,0.10583 0.10583,0.10583 0.14817,0 0.35984,-0.10583 0.67734,-0.33866 0.0635,-0.0212 0.10583,-0.0423 0.14816,-0.0423 0.0212,0 0.0423,0 0.0635,0.0423 0.0423,0.0212 0.0423,0.0423 0.0423,0.0847 0,0.0847 -0.127,0.23284 -0.381,0.42334 -0.27516,0.1905 -0.52916,0.29633 -0.76172,0.29633 -0.10583,0 -0.19049,-0.0212 -0.27516,-0.0847 -0.0635,-0.0423 -0.10583,-0.10583 -0.10583,-0.23283 0,-0.0635 0.0423,-0.14817 0.10583,-0.254 -0.254,0.16933 -0.52917,0.46566 -0.86783,0.889 -0.19051,0.254 -0.38101,0.5715 -0.55034,0.95247 -0.0847,0.127 -0.16933,0.21167 -0.27517,0.21167 -0.10583,0 -0.16933,-0.0635 -0.16933,-0.16934 0,-0.10583 0.0847,-0.38097 0.27517,-0.82547 0.254,-0.67733 0.52916,-1.2065 0.8255,-1.5875 0.16933,-0.21166 0.3175,-0.33867 0.4445,-0.33867 0.0423,0 0.0847,0.0212 0.10583,0.0423 0.0423,0.0212 0.0635,0.0635 0.0635,0.10583 0,0.0635 -0.0212,0.127 -0.0847,0.1905 -0.0212,0.0212 -0.10583,0.127 -0.254,0.3175 -0.127,0.1905 -0.23283,0.35983 -0.3175,0.52917 z"
       style="fill:#e6e6e6;fill-opacity:1;fill-rule:nonzero;stroke:none"
       inkscape:export-filename="X:\dev\BloomLibrary\src\assets\NavBarLogo.png"
       inkscape:export-xdpi="325.61646"
       inkscape:export-ydpi="325.61646" />
    <path
       inkscape:connector-curvature="0"
       id="path7230"
       d="m -453.98028,547.12542 c 0.254,0 0.381,0.14816 0.381,0.46566 0,0.40217 -0.1905,0.91017 -0.5715,1.54517 -0.40217,0.67733 -0.80433,1.01597 -1.18533,1.01597 -0.1905,0 -0.3175,-0.0847 -0.40217,-0.254 -0.0423,-0.0846 -0.0635,-0.19047 -0.0635,-0.2963 0,-0.40217 0.14817,-0.8255 0.40217,-1.29117 0.254,-0.42333 0.55033,-0.74083 0.889,-0.97367 0.21166,-0.14816 0.381,-0.21166 0.55033,-0.21166 z m -0.48683,1.73566 c -0.0635,-0.0635 -0.10584,-0.10583 -0.10584,-0.14816 0,-0.0212 0.0423,-0.0847 0.14817,-0.1905 0.27517,-0.3175 0.40217,-0.5715 0.40217,-0.762 0,-0.0212 0,-0.0423 -0.0212,-0.0635 -0.0212,-0.0423 -0.0635,-0.0847 -0.10584,-0.0847 -0.10583,0 -0.254,0.10583 -0.4445,0.29633 -0.23283,0.254 -0.42333,0.48683 -0.55033,0.762 -0.14817,0.29633 -0.23283,0.52917 -0.23283,0.74083 0,0.0423 0.0212,0.0847 0.0423,0.127 0.0423,0.0635 0.10583,0.0847 0.14816,0.0847 0.14817,0 0.3175,-0.10583 0.48684,-0.3175 0.0635,-0.10583 0.127,-0.1905 0.16933,-0.29633 0.0423,-0.10583 0.0635,-0.14817 0.0635,-0.14817 z"
       style="fill:#e6e6e6;fill-opacity:1;fill-rule:nonzero;stroke:none"
       inkscape:export-filename="X:\dev\BloomLibrary\src\assets\NavBarLogo.png"
       inkscape:export-xdpi="325.61646"
       inkscape:export-ydpi="325.61646" />
    <path
       inkscape:connector-curvature="0"
       id="path7232"
       d="m -451.99061,548.79758 c -0.254,0.35984 -0.46567,0.61384 -0.5715,0.74084 -0.16934,0.16933 -0.29634,0.2963 -0.42334,0.38097 -0.127,0.10583 -0.23283,0.14816 -0.35983,0.14816 -0.10583,0 -0.16933,-0.0635 -0.23283,-0.16933 -0.0423,-0.0846 -0.0847,-0.1693 -0.0847,-0.27514 0,-0.3175 0.21166,-0.78316 0.61383,-1.37583 0.35983,-0.52917 0.61383,-0.78317 0.80433,-0.78317 0.0423,0 0.0847,0.0212 0.127,0.0423 0.0212,0.0423 0.0423,0.0847 0.0423,0.14817 0,0.0635 -0.0635,0.14817 -0.16933,0.27517 -0.254,0.254 -0.48683,0.52916 -0.67733,0.84666 -0.14817,0.27517 -0.23284,0.4445 -0.23284,0.52917 0,0.0635 0.0212,0.0847 0.0847,0.0847 0.1905,0 0.59267,-0.40217 1.2065,-1.18533 0.1905,-0.254 0.3175,-0.40217 0.35984,-0.4445 0.0635,-0.0847 0.14816,-0.10584 0.23283,-0.10584 0.0635,0 0.10583,0 0.14817,0.0423 0.0212,0.0212 0.0423,0.0635 0.0423,0.0847 0,0.0423 -0.0635,0.1905 -0.21167,0.46567 -0.33867,0.59267 -0.508,0.99483 -0.508,1.18533 0,0.0847 0.0423,0.127 0.10583,0.127 0.10584,0 0.254,-0.127 0.4445,-0.381 0.1905,-0.23283 0.35984,-0.55033 0.508,-0.91016 0.0847,-0.14817 0.127,-0.35984 0.1905,-0.635 0.0635,-0.29634 0.16934,-0.4445 0.35984,-0.4445 0.10583,0 0.16933,0.0635 0.16933,0.1905 0,0.40216 -0.23283,0.9525 -0.67733,1.651 -0.46567,0.71966 -0.86784,1.10063 -1.18534,1.10063 -0.23283,0 -0.33866,-0.14816 -0.33866,-0.44447 0,-0.23283 0.0635,-0.52916 0.23283,-0.889 z"
       style="fill:#e6e6e6;fill-opacity:1;fill-rule:nonzero;stroke:none"
       inkscape:export-filename="X:\dev\BloomLibrary\src\assets\NavBarLogo.png"
       inkscape:export-xdpi="325.61646"
       inkscape:export-ydpi="325.61646" />
    <path
       inkscape:connector-curvature="0"
       id="path7234"
       d="m -446.31795,549.32675 c -0.10583,0.16933 -0.21166,0.33867 -0.29633,0.4445 -0.1905,0.25397 -0.381,0.3598 -0.5715,0.3598 -0.16933,0 -0.29633,-0.0635 -0.40217,-0.23283 -0.0423,-0.1058 -0.0847,-0.21164 -0.0847,-0.3598 0,-0.33867 0.10584,-0.71967 0.33867,-1.12184 0.23283,-0.46566 0.508,-0.80433 0.84667,-1.05833 0.23283,-0.14817 0.4445,-0.23283 0.65616,-0.23283 0.127,0 0.23284,0.0423 0.3175,0.127 0.0635,0.0635 0.10584,0.14816 0.10584,0.23283 0,0.0635 -0.0212,0.16933 -0.0847,0.27517 0.0423,0.0635 0.0635,0.127 0.0635,0.16933 0,0.0635 -0.0423,0.16933 -0.12699,0.3175 -0.0847,0.14817 -0.16934,0.35983 -0.254,0.59267 -0.10584,0.27516 -0.14817,0.48683 -0.14817,0.635 0,0.127 0.0423,0.23283 0.127,0.3175 0.0212,0.0212 0.0635,0.0635 0.16933,0.1058 0.0847,0.0423 0.127,0.10583 0.127,0.1905 0,0.0635 -0.0212,0.10583 -0.0635,0.14817 -0.0423,0.0423 -0.10583,0.0635 -0.16933,0.0635 -0.16934,0 -0.29634,-0.0635 -0.42334,-0.21167 -0.10583,-0.127 -0.14816,-0.27514 -0.14816,-0.46564 0,-0.0635 0,-0.14816 0.0212,-0.29633 z m 0.5715,-1.50283 c -0.0423,-0.0847 -0.0847,-0.127 -0.127,-0.14817 -0.0423,-0.0423 -0.0847,-0.0635 -0.127,-0.0635 -0.23283,0 -0.48683,0.21167 -0.762,0.61383 -0.29633,0.4445 -0.4445,0.8255 -0.4445,1.143 0,0.0847 0,0.14817 0.0423,0.16934 0.0212,0.0423 0.0635,0.0635 0.127,0.0635 0.14817,0 0.3175,-0.14817 0.508,-0.46567 0.127,-0.16933 0.254,-0.42333 0.42333,-0.762 0.10584,-0.21167 0.16934,-0.35983 0.23284,-0.42333 0.0212,-0.0423 0.0635,-0.0847 0.127,-0.127 z"
       style="fill:#e6e6e6;fill-opacity:1;fill-rule:nonzero;stroke:none"
       inkscape:export-filename="X:\dev\BloomLibrary\src\assets\NavBarLogo.png"
       inkscape:export-xdpi="325.61646"
       inkscape:export-ydpi="325.61646" />
    <path
       inkscape:connector-curvature="0"
       id="path7236"
       d="m -442.12695,548.56475 c -0.0847,0.23283 -0.14816,0.42333 -0.1905,0.5715 -0.0635,0.14817 -0.0847,0.254 -0.0847,0.3175 0,0.0635 0.0423,0.10583 0.127,0.10583 0.10584,0 0.23284,-0.10583 0.42334,-0.3175 0.0847,-0.0847 0.1905,-0.27516 0.35983,-0.52916 0.0635,-0.10584 0.127,-0.16934 0.21167,-0.16934 0.0635,0 0.10583,0.0423 0.10583,0.127 0,0.127 -0.14817,0.381 -0.4445,0.78317 -0.3175,0.4233 -0.61383,0.63497 -0.889,0.63497 -0.10583,0 -0.21167,-0.0423 -0.27517,-0.14817 -0.0635,-0.0635 -0.0847,-0.14813 -0.0847,-0.25397 0,-0.16933 0.0635,-0.40216 0.16933,-0.71966 0.0847,-0.29634 0.25401,-0.65617 0.44451,-1.10067 0.52916,-1.10066 1.07949,-2.01082 1.62983,-2.73048 0.42333,-0.5715 0.80433,-0.86783 1.0795,-0.86783 0.0847,0 0.16933,0.0423 0.23283,0.10583 0.0635,0.0635 0.0847,0.14817 0.0847,0.254 0,0.42333 -0.381,1.143 -1.143,2.13782 -0.33866,0.44449 -0.762,0.88899 -1.22766,1.33349 -0.127,0.10584 -0.29634,0.27517 -0.52917,0.46567 z m 0.33867,-0.74083 c 0.635,-0.55034 1.2065,-1.22766 1.69333,-2.05315 0.27517,-0.4445 0.40217,-0.71967 0.40217,-0.86783 0,-0.0635 -0.0212,-0.10584 -0.0847,-0.10584 -0.16933,0 -0.48683,0.33867 -0.93133,1.016 -0.35984,0.55033 -0.71967,1.22765 -1.0795,2.01082 z"
       style="fill:#e6e6e6;fill-opacity:1;fill-rule:nonzero;stroke:none"
       inkscape:export-filename="X:\dev\BloomLibrary\src\assets\NavBarLogo.png"
       inkscape:export-xdpi="325.61646"
       inkscape:export-ydpi="325.61646" />
    <path
       inkscape:connector-curvature="0"
       id="path7238"
       d="m -439.62928,547.33708 c 0.0423,0 0.0847,0.0212 0.127,0.0635 0.0212,0.0212 0.0423,0.0635 0.0423,0.0847 0,0.0635 -0.0423,0.14817 -0.127,0.27517 -0.33867,0.508 -0.55033,0.91016 -0.6985,1.22766 -0.127,0.3175 -0.254,0.65617 -0.381,1.01597 -0.0423,0.14817 -0.127,0.23284 -0.21167,0.23284 -0.0635,0 -0.127,-0.0423 -0.14816,-0.0847 -0.0423,-0.0423 -0.0635,-0.0847 -0.0635,-0.127 0,-0.0847 0.10583,-0.40214 0.29633,-0.91014 0.14817,-0.42333 0.40217,-0.86783 0.74083,-1.37583 0.10584,-0.14817 0.1905,-0.254 0.254,-0.3175 0.0635,-0.0635 0.10584,-0.0847 0.16934,-0.0847 z m 0.86783,-1.71448 c 0.14817,0 0.21167,0.0847 0.21167,0.21166 0,0.127 -0.0635,0.27517 -0.21167,0.42333 -0.127,0.16934 -0.23283,0.23284 -0.35983,0.23284 -0.0635,0 -0.10583,-0.0212 -0.14817,-0.0635 -0.0423,-0.0423 -0.0423,-0.0847 -0.0423,-0.14817 0,-0.14816 0.0635,-0.29633 0.23284,-0.46566 0.127,-0.127 0.23283,-0.1905 0.3175,-0.1905 z"
       style="fill:#e6e6e6;fill-opacity:1;fill-rule:nonzero;stroke:none"
       inkscape:export-filename="X:\dev\BloomLibrary\src\assets\NavBarLogo.png"
       inkscape:export-xdpi="325.61646"
       inkscape:export-ydpi="325.61646" />
    <path
       inkscape:connector-curvature="0"
       id="path7240"
       d="m -438.27461,547.67575 c 0.27516,-0.23283 0.508,-0.33867 0.71966,-0.33867 0.127,0 0.23284,0.0635 0.3175,0.16934 0.0635,0.0847 0.10584,0.21166 0.10584,0.3175 0,0.254 -0.0847,0.52916 -0.23284,0.889 -0.16933,0.35983 -0.42333,0.71966 -0.762,1.03716 -0.27516,0.27514 -0.52916,0.40214 -0.78316,0.40214 -0.0847,0 -0.16934,0 -0.254,-0.0423 -0.0635,-0.0423 -0.127,-0.0847 -0.1905,-0.14817 -0.0212,0.0423 -0.0423,0.0635 -0.0423,0.0847 -0.0635,0.10583 -0.0847,0.16933 -0.10584,0.1905 -0.0212,0.0423 -0.0635,0.0423 -0.10583,0.0423 -0.0423,0 -0.10583,-0.0212 -0.14817,-0.0847 -0.0423,-0.0423 -0.0423,-0.10583 -0.0423,-0.14816 0,-0.0847 0.16934,-0.50798 0.508,-1.29114 0.508,-1.10067 1.0795,-2.18016 1.7145,-3.25965 0.27517,-0.4445 0.42334,-0.6985 0.48684,-0.78316 0.0635,-0.0847 0.127,-0.127 0.1905,-0.127 0.0635,0 0.127,0.0212 0.16933,0.10583 0.0423,0.0423 0.0635,0.0847 0.0635,0.14817 0,0.0635 -0.0423,0.14816 -0.10583,0.23283 0,0.0212 -0.10584,0.1905 -0.27517,0.48683 -0.55033,0.84666 -0.97367,1.56631 -1.22767,2.11665 z m -0.91017,1.8415 c 0.0423,0.0635 0.10583,0.10583 0.14817,0.14817 0.0423,0.0212 0.0847,0.0423 0.14816,0.0423 0.27517,0 0.55034,-0.23284 0.84667,-0.6985 0.127,-0.21167 0.254,-0.40217 0.3175,-0.61384 0.0847,-0.1905 0.10583,-0.3175 0.10583,-0.40216 0,-0.0635 0,-0.10584 -0.0423,-0.14817 -0.0212,-0.0212 -0.0635,-0.0423 -0.127,-0.0423 -0.127,0 -0.29633,0.10583 -0.508,0.29633 -0.1905,0.1905 -0.40216,0.46567 -0.59266,0.8255 -0.0847,0.16934 -0.16934,0.3175 -0.23284,0.46567 l -0.0635,0.127 z"
       style="fill:#e6e6e6;fill-opacity:1;fill-rule:nonzero;stroke:none"
       inkscape:export-filename="X:\dev\BloomLibrary\src\assets\NavBarLogo.png"
       inkscape:export-xdpi="325.61646"
       inkscape:export-ydpi="325.61646" />
    <path
       inkscape:connector-curvature="0"
       id="path7242"
       d="m -436.11561,548.56475 c 0.29633,-0.3175 0.635,-0.635 1.03716,-0.93133 0.14817,-0.10584 0.29634,-0.21167 0.4445,-0.3175 0.0847,-0.0423 0.127,-0.0635 0.14817,-0.0635 0.0423,0 0.10583,0.0423 0.14817,0.10583 0.0212,0.0423 0.0423,0.0635 0.0423,0.10583 0,0.0423 -0.0635,0.127 -0.16934,0.21167 -0.3175,0.254 -0.48683,0.4445 -0.48683,0.5715 0,0.0635 0.0423,0.10583 0.127,0.10583 0.127,0 0.35983,-0.10583 0.67733,-0.33866 0.0635,-0.0212 0.10584,-0.0423 0.14817,-0.0423 0.0212,0 0.0423,0 0.0635,0.0423 0.0212,0.0212 0.0423,0.0423 0.0423,0.0847 0,0.0847 -0.127,0.23284 -0.381,0.42334 -0.27517,0.1905 -0.52917,0.29633 -0.762,0.29633 -0.10583,0 -0.1905,-0.0212 -0.27517,-0.0847 -0.0847,-0.0423 -0.10583,-0.10583 -0.10583,-0.23283 0,-0.0635 0.0212,-0.14817 0.0847,-0.254 -0.23283,0.16933 -0.52917,0.46566 -0.84667,0.889 -0.1905,0.254 -0.381,0.5715 -0.5715,0.95247 -0.0635,0.127 -0.14816,0.21167 -0.254,0.21167 -0.10583,0 -0.16933,-0.0635 -0.16933,-0.16934 0,-0.10583 0.0847,-0.38097 0.254,-0.82547 0.27517,-0.67733 0.55033,-1.2065 0.84667,-1.5875 0.16933,-0.21166 0.3175,-0.33867 0.4445,-0.33867 0.0212,0 0.0635,0.0212 0.10583,0.0423 0.0423,0.0212 0.0635,0.0635 0.0635,0.10583 0,0.0635 -0.0423,0.127 -0.10583,0.1905 0,0.0212 -0.0847,0.127 -0.23284,0.3175 -0.14816,0.1905 -0.254,0.35983 -0.3175,0.52917 z"
       style="fill:#e6e6e6;fill-opacity:1;fill-rule:nonzero;stroke:none"
       inkscape:export-filename="X:\dev\BloomLibrary\src\assets\NavBarLogo.png"
       inkscape:export-xdpi="325.61646"
       inkscape:export-ydpi="325.61646" />
    <path
       inkscape:connector-curvature="0"
       id="path7244"
       d="m -432.72895,549.32675 c -0.10583,0.16933 -0.21166,0.33867 -0.3175,0.4445 -0.1905,0.25397 -0.381,0.3598 -0.5715,0.3598 -0.14816,0 -0.29633,-0.0635 -0.381,-0.23283 -0.0635,-0.1058 -0.0847,-0.21164 -0.0847,-0.3598 0,-0.33867 0.10584,-0.71967 0.3175,-1.12184 0.23284,-0.46566 0.52917,-0.80433 0.86784,-1.05833 0.21166,-0.14817 0.42333,-0.23283 0.635,-0.23283 0.127,0 0.23283,0.0423 0.3175,0.127 0.0847,0.0635 0.127,0.14816 0.127,0.23283 0,0.0635 -0.0423,0.16933 -0.0847,0.27517 0.0423,0.0635 0.0635,0.127 0.0635,0.16933 0,0.0635 -0.0423,0.16933 -0.127,0.3175 -0.0847,0.14817 -0.16934,0.35983 -0.27517,0.59267 -0.0847,0.27516 -0.127,0.48683 -0.127,0.635 0,0.127 0.0423,0.23283 0.10583,0.3175 0.0212,0.0212 0.0847,0.0635 0.1905,0.1058 0.0847,0.0423 0.10584,0.10583 0.10584,0.1905 0,0.0635 -0.0212,0.10583 -0.0635,0.14817 -0.0423,0.0423 -0.0847,0.0635 -0.14817,0.0635 -0.16934,0 -0.3175,-0.0635 -0.42333,-0.21167 -0.10584,-0.127 -0.14817,-0.27514 -0.14817,-0.46564 0,-0.0635 0,-0.14816 0.0212,-0.29633 z m 0.5715,-1.50283 c -0.0423,-0.0847 -0.0847,-0.127 -0.127,-0.14817 -0.0423,-0.0423 -0.0847,-0.0635 -0.127,-0.0635 -0.23283,0 -0.48683,0.21167 -0.762,0.61383 -0.29633,0.4445 -0.46566,0.8255 -0.46566,1.143 0,0.0847 0.0212,0.14817 0.0423,0.16934 0.0423,0.0423 0.0847,0.0635 0.14816,0.0635 0.14817,0 0.3175,-0.14817 0.508,-0.46567 0.10584,-0.16933 0.254,-0.42333 0.40217,-0.762 0.10583,-0.21167 0.1905,-0.35983 0.23283,-0.42333 0.0423,-0.0423 0.0847,-0.0847 0.14817,-0.127 z"
       style="fill:#e6e6e6;fill-opacity:1;fill-rule:nonzero;stroke:none"
       inkscape:export-filename="X:\dev\BloomLibrary\src\assets\NavBarLogo.png"
       inkscape:export-xdpi="325.61646"
       inkscape:export-ydpi="325.61646" />
    <path
       inkscape:connector-curvature="0"
       id="path7246"
       d="m -430.80278,548.56475 c 0.29633,-0.3175 0.635,-0.635 1.03717,-0.93133 0.127,-0.10584 0.29633,-0.21167 0.4445,-0.3175 0.0847,-0.0423 0.127,-0.0635 0.14816,-0.0635 0.0423,0 0.10584,0.0423 0.14817,0.10583 0.0212,0.0423 0.0423,0.0635 0.0423,0.10583 0,0.0423 -0.0635,0.127 -0.1905,0.21167 -0.29633,0.254 -0.46567,0.4445 -0.46567,0.5715 0,0.0635 0.0423,0.10583 0.127,0.10583 0.127,0 0.35984,-0.10583 0.67734,-0.33866 0.0635,-0.0212 0.10583,-0.0423 0.14816,-0.0423 0.0212,0 0.0423,0 0.0635,0.0423 0.0212,0.0212 0.0423,0.0423 0.0423,0.0847 0,0.0847 -0.127,0.23284 -0.381,0.42334 -0.27516,0.1905 -0.52916,0.29633 -0.762,0.29633 -0.10583,0 -0.1905,-0.0212 -0.27516,-0.0847 -0.0847,-0.0423 -0.10584,-0.10583 -0.10584,-0.23283 0,-0.0635 0.0212,-0.14817 0.0847,-0.254 -0.23283,0.16933 -0.52916,0.46566 -0.84666,0.889 -0.1905,0.254 -0.381,0.5715 -0.5715,0.95247 -0.0635,0.127 -0.14817,0.21167 -0.254,0.21167 -0.10584,0 -0.16934,-0.0635 -0.16934,-0.16934 0,-0.10583 0.0847,-0.38097 0.254,-0.82547 0.27517,-0.67733 0.55034,-1.2065 0.8255,-1.5875 0.1905,-0.21166 0.33867,-0.33867 0.46567,-0.33867 0.0212,0 0.0635,0.0212 0.10583,0.0423 0.0423,0.0212 0.0635,0.0635 0.0635,0.10583 0,0.0635 -0.0423,0.127 -0.10583,0.1905 0,0.0212 -0.0847,0.127 -0.23283,0.3175 -0.14817,0.1905 -0.254,0.35983 -0.3175,0.52917 z"
       style="fill:#e6e6e6;fill-opacity:1;fill-rule:nonzero;stroke:none"
       inkscape:export-filename="X:\dev\BloomLibrary\src\assets\NavBarLogo.png"
       inkscape:export-xdpi="325.61646"
       inkscape:export-ydpi="325.61646" />
    <path
       inkscape:connector-curvature="0"
       id="path7248"
       d="m -427.11978,548.79758 c -0.27517,0.3175 -0.508,0.5715 -0.65617,0.71967 -0.3175,0.29633 -0.59266,0.46564 -0.80433,0.46564 -0.10583,0 -0.1905,-0.0423 -0.254,-0.127 -0.0423,-0.0635 -0.0635,-0.12697 -0.0635,-0.23281 0,-0.3175 0.1905,-0.762 0.59267,-1.31233 0.381,-0.55033 0.67733,-0.8255 0.84666,-0.8255 0.0635,0 0.10584,0.0212 0.14817,0.0635 0.0212,0.0212 0.0423,0.0635 0.0423,0.10583 0,0.0635 -0.0212,0.127 -0.0635,0.1905 -0.0212,0.0423 -0.127,0.14817 -0.29633,0.33867 -0.16934,0.16933 -0.33867,0.35983 -0.48684,0.5715 -0.16933,0.254 -0.254,0.42333 -0.254,0.52917 0,0.0635 0.0423,0.10583 0.10584,0.10583 0.127,0 0.33866,-0.16933 0.67733,-0.508 0.21167,-0.21167 0.381,-0.381 0.508,-0.52917 0.0212,-0.0423 0.127,-0.1905 0.3175,-0.4445 0.16933,-0.23283 0.27517,-0.35983 0.3175,-0.40216 0.0847,-0.10584 0.16933,-0.16934 0.254,-0.16934 0.0423,0 0.10583,0.0212 0.127,0.0635 0.0423,0.0423 0.0635,0.0847 0.0635,0.14817 0,0.0847 -0.0635,0.23283 -0.1905,0.4445 -0.14817,0.254 -0.27517,0.48683 -0.40217,0.71967 -0.1905,0.33866 -0.33866,0.635 -0.4445,0.91016 0.1905,-0.10583 0.381,-0.254 0.55034,-0.42333 0.27516,-0.27517 0.4445,-0.48683 0.48683,-0.61383 0.0635,-0.127 0.127,-0.1905 0.1905,-0.1905 0.0847,0 0.127,0.0423 0.127,0.127 0,0.16933 -0.14817,0.42333 -0.42333,0.74083 -0.3175,0.381 -0.71967,0.69847 -1.2065,0.97364 -0.254,0.61383 -0.508,1.143 -0.74084,1.54516 -0.42333,0.74084 -0.86783,1.12184 -1.3335,1.12184 -0.16933,0 -0.3175,-0.0635 -0.4445,-0.21167 -0.0847,-0.10583 -0.127,-0.254 -0.127,-0.42333 0,-0.46567 0.33867,-0.9525 0.99484,-1.4605 0.21166,-0.14817 0.48683,-0.33867 0.889,-0.55034 0.14816,-0.0847 0.27516,-0.16933 0.35983,-0.21166 0.0635,-0.14817 0.14817,-0.33864 0.254,-0.57147 0.127,-0.254 0.23283,-0.46567 0.33867,-0.67734 z m -0.84667,1.79914 c -0.33866,0.16933 -0.65616,0.40217 -0.99483,0.71967 -0.35983,0.3175 -0.52917,0.61383 -0.52917,0.86783 0,0.0635 0.0212,0.127 0.0635,0.14817 0.0423,0.0635 0.10584,0.0847 0.16934,0.0847 0.23283,0 0.48683,-0.23283 0.762,-0.71966 0.0423,-0.0847 0.16933,-0.33867 0.381,-0.78317 0.0423,-0.10583 0.0847,-0.1905 0.14816,-0.3175 z"
       style="fill:#e6e6e6;fill-opacity:1;fill-rule:nonzero;stroke:none"
       inkscape:export-filename="X:\dev\BloomLibrary\src\assets\NavBarLogo.png"
       inkscape:export-xdpi="325.61646"
       inkscape:export-ydpi="325.61646" />
    <path
       inkscape:connector-curvature="0"
       id="path7250"
       d="m -504.2083,557.79333 c 0.0847,-5.99011 -2.07431,-7.38711 -3.36547,-8.33958 -1.14297,-0.84667 -3.40781,-1.7145 -5.05879,-2.01083 -0.10583,-0.0212 -0.63499,7.0696 0.27517,9.46144 1.50281,4.00047 4.48728,5.65144 7.13312,5.58794 2.41297,-0.0635 6.15944,-1.67214 7.02727,-4.9953 0.71967,-2.79398 0.3175,-9.37675 0.254,-9.88475 -2.54,0.0635 -4.14863,0.48683 -6.0113,2.0955"
       style="fill:none;stroke:#d65649;stroke-width:1.9049859px;stroke-linecap:butt;stroke-linejoin:round;stroke-miterlimit:4;stroke-dasharray:none;stroke-opacity:1"
       inkscape:export-filename="X:\dev\BloomLibrary\src\assets\NavBarLogo.png"
       inkscape:export-xdpi="325.61646"
       inkscape:export-ydpi="325.61646" />
    <path
       inkscape:connector-curvature="0"
       id="path7252"
       d="m -504.2083,557.79333 c 0.0847,-5.99011 -2.07431,-7.38711 -3.36547,-8.33958 -1.14297,-0.84667 -3.40781,-1.7145 -5.05879,-2.01083 -0.10583,-0.0212 -0.63499,7.0696 0.27517,9.46144 1.50281,4.00047 4.48728,5.65144 7.13312,5.58794 2.41297,-0.0635 6.15944,-1.67214 7.02727,-4.9953 0.71967,-2.79398 0.3175,-9.37675 0.254,-9.88475 -2.54,0.0635 -4.14863,0.48683 -6.0113,2.0955"
       style="fill:none;stroke:#d65649;stroke-width:1.9049859px;stroke-linecap:butt;stroke-linejoin:round;stroke-miterlimit:4;stroke-dasharray:none;stroke-opacity:1"
       inkscape:export-filename="X:\dev\BloomLibrary\src\assets\NavBarLogo.png"
       inkscape:export-xdpi="325.61646"
       inkscape:export-ydpi="325.61646" />
  </g>
</svg>
