<svg width="28" height="42" viewBox="0 0 28 42" fill="none" xmlns="http://www.w3.org/2000/svg">
<rect x="2.33484" y="2.52374" width="23.7789" height="35.4895" fill="white"/>
<mask id="path-2-inside-1" fill="white">
<path fill-rule="evenodd" clip-rule="evenodd" d="M24.9755 3.32004H2.83372L2.83371 37.3924H14.9046H24.9755L24.9755 3.32004ZM2.83372 0.730103C1.40333 0.730103 0.243774 1.88966 0.243774 3.32004V39.0606C0.243774 40.491 1.40333 41.6505 2.83371 41.6505H24.9755C26.4059 41.6505 27.5655 40.491 27.5655 39.0606V3.32004C27.5655 1.88966 26.4059 0.730103 24.9755 0.730103H2.83372Z"/>
</mask>
<path fill-rule="evenodd" clip-rule="evenodd" d="M24.9755 3.32004H2.83372L2.83371 37.3924H14.9046H24.9755L24.9755 3.32004ZM2.83372 0.730103C1.40333 0.730103 0.243774 1.88966 0.243774 3.32004V39.0606C0.243774 40.491 1.40333 41.6505 2.83371 41.6505H24.9755C26.4059 41.6505 27.5655 40.491 27.5655 39.0606V3.32004C27.5655 1.88966 26.4059 0.730103 24.9755 0.730103H2.83372Z" fill="#3D3D3D" stroke="#3D3D3D" stroke-width="5.17988" mask="url(#path-2-inside-1)"/>
<rect x="8.74426" y="38.9565" width="10.3207" height="1.13472" rx="0.258994" fill="white"/>
<path fill-rule="evenodd" clip-rule="evenodd" d="M5.54608 11.4958C5.86599 11.277 6.2603 11.1957 6.64066 11.2701C8.49083 11.632 11.0753 12.6235 12.4754 13.6298C12.4833 13.6355 12.4912 13.6413 12.4991 13.6472C12.547 13.6831 12.5977 13.7207 12.6509 13.7601C13.3113 14.2494 14.3533 15.0213 15.1754 16.4692C16.0595 18.0263 16.6236 20.2239 16.5649 23.5117L13.6716 23.46C13.7242 20.5151 13.2125 18.8729 12.659 17.898C12.1457 16.994 11.5408 16.5427 10.8987 16.0637C10.8578 16.0332 10.8168 16.0026 10.7757 15.9718C10.083 15.4775 8.80273 14.9035 7.56163 14.502C7.23529 17.4562 7.47074 20.4858 8.3672 22.8126C8.8898 24.1691 9.60865 25.2157 10.4981 25.9029C11.365 26.5728 12.4779 26.968 13.9471 26.9004C15.8313 26.8137 17.0822 26.3976 17.9345 25.8164C18.7683 25.2479 19.3461 24.4364 19.7366 23.3098C20.1368 22.1551 20.3274 20.7026 20.375 18.93C20.4111 17.5848 20.3644 16.1095 20.2854 14.5044C19.0165 14.7136 18.1528 14.9964 17.6001 15.2316C17.2265 15.3907 16.9925 15.529 16.8692 15.6106C16.8081 15.651 16.7736 15.6779 16.7621 15.6871C16.7194 15.7262 16.6743 15.7627 16.6272 15.7964L16.3675 15.9819L14.6852 13.6274L14.8852 13.4845C14.9035 13.469 14.9237 13.4523 14.9458 13.4344C15.0274 13.3687 15.1351 13.2882 15.2721 13.1975C15.5465 13.0159 15.9362 12.7949 16.4668 12.569C17.5284 12.1172 19.1438 11.6502 21.5167 11.4346C21.9075 11.399 22.2961 11.5238 22.5931 11.7803C22.8902 12.0367 23.0704 12.4029 23.0923 12.7947C23.2156 14.9995 23.3187 17.1044 23.2676 19.0077C23.2167 20.9054 23.0116 22.6969 22.4708 24.2574C21.9201 25.846 21.0114 27.2209 19.5646 28.2073C18.1364 29.1811 16.3128 29.6884 14.0801 29.7911C11.9662 29.8884 10.1699 29.3062 8.72886 28.1928C7.31034 27.0968 6.3225 25.5545 5.66694 23.8529C4.36561 20.4751 4.26293 16.1939 4.93885 12.434C5.00742 12.0526 5.22617 11.7146 5.54608 11.4958Z" fill="#D65649"/>
</svg>
