<svg width="39" height="42" viewBox="0 0 39 42" fill="none" xmlns="http://www.w3.org/2000/svg">
<path d="M18.535 22.2276C18.8373 21.9253 18.9885 21.5222 18.9885 21.0183C18.9885 20.6152 18.8877 20.3128 18.7365 20.0609C18.5854 19.8089 18.3334 19.6074 18.0311 19.5066C17.8295 19.4562 17.4768 19.4058 16.9729 19.4058H14.7557V22.6308H16.9729C17.7287 22.6812 18.2326 22.53 18.535 22.2276Z" fill="#3D3D3D"/>
<path d="M34.2062 23.3866C33.9039 23.2858 33.5008 23.2354 32.9465 23.2354H30.9309V26.3596H33.0977C33.4504 26.3596 33.7023 26.3596 33.8535 26.3092C34.1055 26.2588 34.3574 26.158 34.5086 26.0572C34.6597 25.9565 34.8109 25.7549 34.9621 25.5533C35.0629 25.3518 35.1133 25.0998 35.1133 24.7975C35.1133 24.4448 35.0125 24.1424 34.8613 23.9409C34.7101 23.7393 34.5086 23.4874 34.2062 23.3866Z" fill="#3D3D3D"/>
<path d="M31.0315 0.358521H2.76284V15.5762H0.142578V29.6853H2.81323V41.5269H38.9427V8.26971L31.0315 0.358521ZM31.3338 2.07177L37.3302 8.06815H31.3338V2.07177ZM37.9349 40.4687H3.77064V29.6853H37.8845V40.4687H37.9349ZM11.7322 22.2277V23.2858H6.94519V26.3596H12.2865V27.4178H5.83662V18.3476H12.0849V19.4058H6.99558V22.1773H11.7322V22.2277ZM13.5966 27.4178V18.3476H16.8216C17.3759 18.3476 17.8294 18.398 18.1317 18.4484C18.5348 18.4988 18.8876 18.65 19.1899 18.8515C19.4922 19.0531 19.6938 19.3554 19.8953 19.7082C20.0465 20.0609 20.1473 20.5144 20.1473 20.9679C20.1473 21.7238 19.8953 22.3788 19.4418 22.9331C18.9883 23.4874 18.1317 23.7393 16.9224 23.7393H14.7052V27.4178H13.5966ZM22.7676 25.3518C22.9187 25.7045 23.1707 26.0069 23.473 26.2084C23.8257 26.41 24.2289 26.5108 24.7328 26.5108C25.5894 26.5108 26.1437 26.3092 26.5468 25.9061C26.8995 25.503 27.1011 24.7471 27.1011 23.5882V18.3476H28.26V23.5882C28.26 24.4952 28.1593 25.2006 27.9577 25.7549C27.7561 26.3092 27.4034 26.7123 26.8995 27.0651C26.3956 27.4178 25.7405 27.569 24.8839 27.569C24.0777 27.569 23.4226 27.4178 22.9187 27.1155C22.4148 26.8131 22.0621 26.41 21.8102 25.8557C21.6086 25.3014 21.4574 24.5456 21.4574 23.5882V18.3476H22.6164V23.5882C22.566 24.3944 22.6164 24.9487 22.7676 25.3518ZM35.8689 23.437C36.1712 23.8401 36.272 24.2936 36.272 24.7975C36.272 25.2006 36.1712 25.6038 36.02 26.0069C35.8689 26.3596 35.6169 26.6619 35.365 26.8635C35.113 27.0651 34.8107 27.2162 34.4076 27.317C34.0045 27.4178 33.551 27.4682 32.9967 27.4682H29.7213V18.398H32.9463C33.6013 18.398 34.1556 18.4988 34.5084 18.65C34.9115 18.8515 35.2138 19.1035 35.4658 19.5066C35.6673 19.9097 35.8185 20.2625 35.8185 20.716C35.8185 21.1191 35.7177 21.4718 35.5162 21.8245C35.3146 22.1773 35.0123 22.4292 34.6091 22.6308C35.2138 22.7819 35.6169 23.0339 35.8689 23.437ZM37.9349 15.5762H3.77064V1.36631H30.326V9.07594H37.9349V15.5762Z" fill="#3D3D3D"/>
<path d="M33.9543 19.557C33.7023 19.4562 33.2488 19.4058 32.6442 19.4058H30.9309V22.1269H32.7953C33.2992 22.1269 33.652 22.0765 33.9039 22.0261C34.2062 21.9253 34.4078 21.7741 34.559 21.5726C34.7101 21.371 34.7605 21.1191 34.7605 20.7663C34.7605 20.464 34.7101 20.2121 34.559 19.9601C34.4078 19.8089 34.2566 19.6578 33.9543 19.557Z" fill="#3D3D3D"/>
</svg>
