<svg width="32" height="44" viewBox="0 0 32 44" fill="none" xmlns="http://www.w3.org/2000/svg">
<g clip-path="url(#clip0)">
<path d="M15.41 32.6548C14.8936 32.6548 14.5601 32.6994 14.3627 32.7437V39.2846C14.5605 39.3293 14.8792 39.3293 15.1672 39.3293C17.2612 39.3437 18.6273 38.2171 18.6273 35.8289C18.6422 33.7521 17.398 32.6548 15.41 32.6548Z" fill="#3D3D3D"/>
<path d="M6.47 32.6255C5.9998 32.6255 5.68108 32.6697 5.51367 32.714V35.666C5.71129 35.7102 5.95428 35.7255 6.2869 35.7255C7.51721 35.7255 8.27568 35.1171 8.27568 34.0938C8.27576 33.1744 7.62277 32.6255 6.47 32.6255Z" fill="#3D3D3D"/>
<path d="M31.6319 11.0829C31.6294 10.8902 31.5668 10.6998 31.4314 10.5493L23.139 1.29304C23.1374 1.29045 23.1342 1.28961 23.1324 1.28724C23.083 1.2333 23.0263 1.18881 22.9653 1.14959C22.9472 1.13814 22.9282 1.12784 22.9092 1.11739C22.8565 1.08946 22.8013 1.06626 22.7429 1.04932C22.7281 1.0449 22.7132 1.03864 22.6976 1.03467C22.6351 1.01987 22.57 1.01117 22.5049 1.01117H2.12574C1.19596 1.01117 0.439209 1.7508 0.439209 2.65945V41.3922C0.439209 42.3012 1.19596 43.0405 2.12574 43.0405H29.9535C30.8833 43.0405 31.6401 42.3012 31.6401 41.3922V11.1752C31.6401 11.1443 31.6351 11.1139 31.6319 11.0829ZM9.62621 36.4073C8.83728 37.1339 7.66858 37.4608 6.30241 37.4608C5.9993 37.4608 5.72532 37.4455 5.51364 37.4165V40.9906H3.22199V31.1271C3.93494 31.0088 4.93718 30.9195 6.34887 30.9195C7.77516 30.9195 8.79215 31.1866 9.47489 31.7202C10.1279 32.2247 10.5668 33.0553 10.5668 34.034C10.5668 35.0133 10.2337 35.8439 9.62621 36.4073ZM19.3855 39.8043C18.3092 40.6791 16.6701 41.0944 14.6673 41.0944C13.4681 41.0944 12.6186 41.0203 12.0409 40.9463V31.1271C12.891 30.9943 13.9994 30.9195 15.1677 30.9195C17.1093 30.9195 18.3693 31.2607 19.3563 31.9874C20.419 32.7587 21.0869 33.9897 21.0869 35.7546C21.086 37.6684 20.3729 38.9883 19.3855 39.8043ZM28.8582 32.8478H24.9268V35.1318H28.5996V36.9715H24.9268V40.9906H22.6054V30.9943H28.8582V32.8478ZM2.12574 28.9964V2.65945H21.6617V11.0924C21.6617 11.5472 22.0389 11.9165 22.5049 11.9165H29.9535L29.9544 28.9964H2.12574Z" fill="#3D3D3D"/>
<path d="M24.6919 18.7245C24.6424 18.72 23.4541 18.614 21.6301 18.614C21.0586 18.614 20.483 18.6249 19.9148 18.6458C16.3127 16.0041 13.3624 13.3604 11.7829 11.8787C11.8117 11.7156 11.8315 11.5866 11.8407 11.4876C12.049 9.33846 11.8175 7.88758 11.1547 7.17519C10.7207 6.70965 10.0834 6.55475 9.41876 6.73216C9.00603 6.83784 8.24201 7.22914 7.99739 8.02569C7.72731 8.90595 8.16143 9.97431 9.30195 11.2132C9.32006 11.232 9.70711 11.6283 10.4104 12.2999C9.95329 14.4298 8.75679 19.0261 8.17627 21.2332C6.81275 21.9452 5.67669 22.8029 4.79719 23.7868L4.73957 23.8512L4.70232 23.9285C4.61175 24.1144 4.17879 25.0797 4.50384 25.8551C4.65227 26.2077 4.93039 26.4652 5.30822 26.6004L5.40949 26.627C5.40949 26.627 5.50085 26.6463 5.66146 26.6463C6.36496 26.6463 8.10147 26.285 9.03288 22.9306L9.25854 22.0807C12.5097 20.5364 16.5737 20.0382 19.5194 19.8994C21.0347 20.9975 22.5425 22.0063 24.0034 22.8996L24.0511 22.9266C24.122 22.962 24.7626 23.2711 25.5129 23.2718C26.5851 23.2718 27.3682 22.6288 27.6598 21.5081L27.6745 21.4315C27.756 20.7911 27.5914 20.2138 27.1986 19.7626C26.3711 18.812 24.8303 18.7291 24.6919 18.7245ZM5.68769 25.4096C5.68114 25.4019 5.67801 25.3948 5.67473 25.3867C5.60477 25.2221 5.68871 24.8229 5.81223 24.5304C6.34255 23.9509 6.97914 23.419 7.71372 22.9401C6.99835 25.2032 5.95801 25.3988 5.68769 25.4096ZM10.2298 10.3736C9.13119 9.17852 9.14766 8.586 9.20677 8.38654C9.30374 8.05316 9.74146 7.92718 9.74521 7.92604C9.96571 7.86743 10.0995 7.87896 10.2187 8.00677C10.4881 8.29604 10.7196 9.16906 10.6281 10.7704C10.3688 10.5157 10.2298 10.3736 10.2298 10.3736ZM9.66213 20.5507L9.68111 20.4799L9.67861 20.4808C10.2287 18.3753 11.022 15.2923 11.4781 13.3119L11.4946 13.3273L11.4962 13.3178C12.972 14.6759 15.2347 16.6623 17.944 18.7284L17.9136 18.7296L17.9584 18.7627C15.4061 18.9733 12.3577 19.4651 9.66213 20.5507ZM26.4238 21.2415C26.2294 21.9393 25.8556 22.0347 25.513 22.0347C25.1152 22.0347 24.7323 21.873 24.645 21.8339C23.6502 21.2245 22.6324 20.5605 21.6054 19.8501C21.6136 19.8501 21.6211 19.8501 21.6301 19.8501C23.3907 19.8501 24.5634 19.9546 24.6095 19.9578C24.9035 19.9684 25.8341 20.1027 26.2351 20.5635C26.3924 20.7441 26.4526 20.96 26.4238 21.2415Z" fill="#3D3D3D"/>
</g>
<defs>
<clipPath id="clip0">
<rect width="31.8324" height="43.9068" fill="white" transform="translate(0.110229)"/>
</clipPath>
</defs>
</svg>
