<svg width="17" height="14" viewBox="0 0 17 14" fill="none" xmlns="http://www.w3.org/2000/svg">
<path d="M1.21557 0.344333C1.08736 0.357771 0.968724 0.418387 0.882709 0.514404C0.796693 0.610421 0.74944 0.734984 0.75013 0.863893V11.065C0.750143 11.2028 0.804887 11.3349 0.90232 11.4324C0.999754 11.5298 1.1319 11.5845 1.26969 11.5846C3.07089 11.5846 4.43216 11.6783 5.51276 11.9634C6.59337 12.2485 7.39902 12.7035 8.17009 13.5004C8.21854 13.5505 8.27657 13.5903 8.34073 13.6175C8.40488 13.6447 8.47385 13.6587 8.54353 13.6587C8.61321 13.6587 8.68217 13.6447 8.74633 13.6175C8.81048 13.5903 8.86851 13.5505 8.91696 13.5004C9.68804 12.7035 10.4937 12.2485 11.5743 11.9634C12.6549 11.6783 14.0162 11.5846 15.8174 11.5846C15.9552 11.5845 16.0873 11.5298 16.1847 11.4324C16.2822 11.3349 16.3369 11.2028 16.3369 11.065V0.863893C16.3369 0.726101 16.2822 0.593957 16.1847 0.496524C16.0873 0.39909 15.9552 0.344347 15.8174 0.344333C13.9816 0.344333 12.5412 0.430592 11.3091 0.755651C10.2436 1.03676 9.34329 1.52193 8.54353 2.23856C7.74376 1.52193 6.84342 1.03676 5.77795 0.755651C4.54588 0.430592 3.10541 0.344333 1.26969 0.344333C1.25166 0.343393 1.2336 0.343393 1.21557 0.344333ZM1.98405 1.68203C3.50662 1.70114 4.5495 1.7905 5.51276 2.04464C6.52583 2.31192 7.19028 2.73323 7.9181 3.44096V11.8026C7.25061 11.3122 6.61976 10.9585 5.77795 10.7364C4.67472 10.4454 3.55604 10.3593 1.98405 10.3414V1.68203ZM15.0632 1.68203V10.3414C13.4912 10.3593 12.4123 10.4454 11.3091 10.7364C10.4673 10.9585 9.85717 11.3122 9.18968 11.8026V3.44096C9.91749 2.73323 10.5612 2.31192 11.5743 2.04464C12.5376 1.7905 13.5406 1.70114 15.0632 1.68203Z" fill="white"/>
</svg>
