<?xml version="1.0" encoding="UTF-8" standalone="no"?>
<svg
   xmlns:dc="http://purl.org/dc/elements/1.1/"
   xmlns:cc="http://creativecommons.org/ns#"
   xmlns:rdf="http://www.w3.org/1999/02/22-rdf-syntax-ns#"
   xmlns:svg="http://www.w3.org/2000/svg"
   xmlns="http://www.w3.org/2000/svg"
   xmlns:sodipodi="http://sodipodi.sourceforge.net/DTD/sodipodi-0.dtd"
   xmlns:inkscape="http://www.inkscape.org/namespaces/inkscape"
   height="32"
   id="Layer_1"
   version="1.1"
   viewBox="0 0 32 32"
   width="32"
   xml:space="preserve"
   inkscape:version="0.48.4 r9939"
   sodipodi:docname="reportAbuse.svg"><metadata
     id="metadata11"><rdf:RDF><cc:Work
         rdf:about=""><dc:format>image/svg+xml</dc:format><dc:type
           rdf:resource="http://purl.org/dc/dcmitype/StillImage" /><dc:title></dc:title></cc:Work></rdf:RDF></metadata><defs
     id="defs9" /><sodipodi:namedview
     pagecolor="#ffffff"
     bordercolor="#666666"
     borderopacity="1"
     objecttolerance="10"
     gridtolerance="10"
     guidetolerance="10"
     inkscape:pageopacity="0"
     inkscape:pageshadow="2"
     inkscape:window-width="1163"
     inkscape:window-height="861"
     id="namedview7"
     showgrid="false"
     inkscape:zoom="3.6011588"
     inkscape:cx="8.0668061"
     inkscape:cy="48.083968"
     inkscape:window-x="2191"
     inkscape:window-y="44"
     inkscape:window-maximized="0"
     inkscape:current-layer="g3" /><g
     id="g3"
     transform="translate(0,-480)"><path
       d="m 27.655147,481.59632 c -1.097228,0.13965 -2.483712,0.34912 -3.959977,0.34912 -2.304168,0 -4.388892,-0.56856 -6.503542,-1.01743 -2.144577,-0.45883 -4.358975,-0.92765 -6.703037,-0.92765 -4.678167,0 -6.2641547,1.00746 -6.4237464,1.11718 l -0.3391439,0.23939 v 0.25934 16.12919 14.17413 H 5.321664 v -14.29383 c 0.5984828,-0.24937 2.1744948,-0.68826 5.176894,-0.68826 2.174504,0 4.209349,0.82791 6.373877,1.29672 2.194446,0.46881 4.468688,0.95757 6.932458,0.95757 1.466289,0 2.763002,-0.19949 3.86023,-0.32916 0.598482,-0.0698 1.127145,-0.13964 1.595963,-0.21944 v -15.6504 -1.64584 c -0.468818,0.0898 -1.007456,0.16958 -1.605939,0.24937 z m 0,15.66038 c -1.097228,0.13964 -2.383965,0.34911 -3.86023,0.34911 -2.304168,0 -4.488639,-0.46881 -6.603289,-0.91768 -2.144577,-0.45883 -4.348999,-1.32664 -6.693071,-1.32664 -2.5635071,0 -4.1794217,0.29924 -5.176893,0.59848 v -13.69533 c 0.5984828,-0.24938 2.1844704,-0.67829 5.176893,-0.67829 2.174505,0 4.20935,0.42891 6.373878,0.89773 2.194446,0.46881 4.368941,1.05732 6.832711,1.05732 1.466289,0 2.862749,-0.1995 3.959977,-0.32916 l -0.01,14.04446 0,0 z"
       id="path5"
       style="fill:#b3b3b3;fill-opacity:1"
       inkscape:connector-curvature="0" /></g></svg>